<?xml version="1.0" standalone="no"?>
<!DOCTYPE svg PUBLIC "-//W3C//DTD SVG 20010904//EN"
 "http://www.w3.org/TR/2001/REC-SVG-20010904/DTD/svg10.dtd">
<svg version="1.0" xmlns="http://www.w3.org/2000/svg"
 width="600.000000pt" height="600.000000pt" viewBox="0 0 600.000000 600.000000"
 preserveAspectRatio="xMidYMid meet">

<g transform="translate(0.000000,600.000000) scale(0.100000,-0.100000)"
fill="#000000" stroke="none">
<path d="M4080 4914 c-50 -10 -51 -12 -25 -50 44 -65 27 -122 -62 -207 -57
-55 -113 -131 -113 -154 0 -11 14 -13 68 -8 79 7 214 -14 272 -43 22 -11 37
-15 34 -10 -11 17 -81 46 -142 58 -37 8 -96 11 -142 7 -45 -3 -80 -1 -80 4 0
5 38 49 84 97 46 49 91 103 100 120 25 48 21 105 -10 141 l-26 31 169 0 c92 0
185 -5 207 -11 l39 -11 -5 -71 c-6 -89 -57 -219 -123 -315 l-46 -67 41 45 c78
84 140 237 140 345 l0 66 -37 16 c-28 12 -75 17 -178 19 -77 1 -151 0 -165 -2z"/>
<path d="M2400 4409 c-243 -126 -259 -139 -172 -139 53 0 67 -10 97 -69 l17
-34 24 41 c27 45 28 46 136 63 l76 11 7 78 c4 43 3 89 -2 102 -6 16 -9 -4 -13
-72 l-5 -95 -75 -11 c-41 -7 -76 -10 -78 -9 -2 2 17 25 41 53 61 69 122 163
105 162 -2 0 -73 -37 -158 -81z m69 -36 c-44 -54 -91 -118 -103 -142 l-23 -45
-21 46 c-17 40 -26 48 -55 53 -20 4 -46 4 -59 0 -12 -3 51 33 142 80 91 48
169 91 175 96 5 5 13 9 17 9 5 0 -28 -44 -73 -97z"/>
<path d="M2396 4365 c-95 -65 -119 -89 -51 -50 53 29 145 94 145 101 0 10 -20
-1 -94 -51z"/>
<path d="M4131 4363 c-6 -96 -81 -128 -259 -109 -101 11 -113 15 -146 44 -55
48 -147 72 -275 72 -100 0 -112 -2 -169 -31 -96 -47 -151 -127 -157 -228 l-4
-56 8 50 c32 195 191 287 426 246 69 -12 151 -47 174 -74 10 -13 7 -16 -17
-21 -47 -11 -82 -51 -82 -95 0 -70 73 -107 134 -68 32 22 42 60 28 111 -6 23
-9 43 -6 45 2 2 44 -2 94 -8 100 -14 151 -9 198 19 36 22 65 72 59 103 l-4 22
-2 -22z m-363 -138 c30 -65 2 -135 -53 -135 -30 0 -75 41 -75 67 0 28 29 63
64 79 44 19 51 17 64 -11z"/>
<path d="M2305 4141 c-3 -6 -42 -32 -86 -58 -128 -76 -219 -184 -259 -307 -7
-22 -25 -50 -40 -63 -58 -48 -99 -201 -100 -371 0 -120 23 -230 66 -316 19
-38 33 -70 32 -71 -2 -1 -25 -8 -53 -14 -48 -12 -50 -12 -64 11 -34 55 -121
126 -186 152 -268 107 -731 -18 -913 -247 -67 -83 -87 -134 -87 -222 0 -69 4
-86 27 -125 15 -26 45 -57 72 -74 41 -26 45 -32 38 -55 -4 -14 -7 -57 -7 -96
0 -123 59 -186 169 -183 l61 1 -68 6 c-63 5 -71 9 -102 43 -41 45 -59 105 -50
173 9 77 11 78 86 60 207 -48 337 12 394 186 36 106 -21 172 -127 150 -122
-27 -268 -139 -321 -247 -11 -24 -27 -44 -34 -44 -25 0 -92 71 -109 115 -22
59 -16 154 15 218 13 27 48 75 78 108 139 150 369 245 618 256 161 7 264 -20
361 -94 29 -21 84 -91 84 -105 0 -3 -29 -13 -65 -23 -36 -9 -64 -19 -62 -22 3
-2 32 3 66 12 34 9 66 13 71 10 22 -13 7 -24 -52 -39 -62 -16 -62 -16 -13 -10
28 3 58 7 67 10 11 3 18 -2 21 -18 l4 -23 2 22 c1 16 9 24 29 29 15 3 44 10
65 15 35 9 41 7 79 -26 23 -19 49 -35 57 -35 9 0 2 8 -16 16 -30 15 -70 52
-62 57 3 2 203 53 308 79 8 2 18 -12 26 -37 l13 -40 -2 44 -1 44 50 18 c56 20
51 25 -9 8 -26 -7 -42 -7 -49 0 -7 7 -2 12 14 15 13 3 51 13 84 21 48 12 52
14 18 10 -24 -3 -60 -8 -81 -11 l-39 -6 9 63 c12 96 58 178 153 279 70 73 138
170 120 170 -2 0 -12 -14 -21 -32 -9 -17 -58 -75 -109 -128 -105 -110 -140
-173 -157 -284 l-12 -73 -166 -37 c-91 -20 -174 -39 -186 -42 -17 -4 -25 5
-52 58 -50 100 -66 176 -65 318 1 139 18 231 58 309 34 68 43 70 43 9 0 -44 4
-56 27 -75 74 -64 146 58 76 128 -16 16 -39 29 -50 29 -30 0 -27 24 13 102 50
99 99 153 207 224 87 57 121 84 105 84 -3 0 -7 -4 -11 -9z m-296 -426 c57 -29
59 -118 3 -132 -48 -12 -82 72 -52 128 13 23 13 23 49 4z m292 -714 c-23 -15
-451 -113 -466 -107 -29 11 -15 23 40 35 46 10 59 10 72 -1 14 -11 16 -11 11
3 -5 13 14 21 110 43 223 51 237 53 241 43 2 -5 -2 -12 -8 -16z m-1097 -312
c30 -24 34 -64 12 -127 -35 -98 -96 -155 -188 -174 -46 -10 -70 -9 -144 6 -49
9 -93 21 -97 25 -22 22 83 160 161 215 56 38 150 75 193 76 22 0 47 -8 63 -21z"/>
<path d="M2680 4029 c60 -10 185 -52 212 -73 16 -12 15 -20 -12 -129 -30 -120
-81 -239 -123 -291 l-24 -29 -34 36 c-36 38 -158 107 -189 107 -32 0 -31 14 5
86 35 71 79 201 89 264 4 19 -18 -32 -47 -115 -29 -82 -63 -169 -75 -192 -17
-33 -19 -43 -8 -43 26 0 179 -83 218 -118 l39 -35 30 29 c43 41 105 173 128
274 35 155 35 146 -7 175 -49 34 -153 65 -211 64 l-46 -1 55 -9z"/>
<path d="M3104 3886 c-21 -21 -34 -44 -34 -60 0 -20 -5 -26 -22 -26 -61 0
-126 -79 -112 -135 9 -37 50 -65 96 -65 54 0 99 21 154 72 35 32 48 39 52 28
3 -8 24 -33 48 -56 l43 -41 -60 -17 -60 -16 -23 27 c-21 24 -27 26 -52 18 -16
-6 -35 -24 -44 -40 -8 -16 -22 -35 -30 -42 -12 -10 -12 -12 -1 -13 10 0 12
-11 6 -46 -7 -50 2 -64 40 -63 18 0 18 1 -2 9 -18 7 -23 17 -23 43 0 44 8 50
33 26 11 -10 29 -19 39 -19 26 0 58 36 58 65 0 14 5 25 12 25 7 0 43 10 80 21
66 21 69 21 88 4 37 -33 21 -95 -25 -95 -15 0 -17 -2 -6 -9 8 -5 20 -7 27 -4
7 2 20 -9 28 -26 18 -33 44 -51 76 -51 12 0 24 -9 30 -24 5 -13 14 -27 19 -31
19 -11 12 -20 -31 -43 -24 -12 -50 -27 -59 -34 -13 -9 -22 -7 -43 10 -24 18
-36 20 -95 15 -68 -6 -68 -6 -110 32 -38 35 -40 39 -24 48 28 16 54 45 44 52
-6 3 -21 -6 -36 -21 -21 -21 -29 -23 -40 -14 -28 23 -15 -6 21 -48 52 -61 83
-75 157 -67 47 4 67 2 81 -10 19 -14 18 -16 -21 -52 -79 -74 -105 -132 -167
-363 -43 -158 -90 -258 -160 -337 -33 -37 -40 -49 -21 -35 43 34 104 118 137
190 16 35 47 131 69 214 22 83 52 174 67 204 31 61 166 189 231 218 l40 19
-24 29 c-30 36 -31 48 -5 48 66 0 110 63 110 160 0 94 -39 149 -124 175 -28 9
-64 22 -80 28 l-29 11 34 13 34 13 -37 -4 c-32 -4 -38 -2 -38 14 0 10 -5 22
-11 26 -9 5 -10 -1 -5 -22 7 -26 3 -24 -52 29 -69 65 -94 77 -164 77 -44 0
-54 -4 -84 -34z m76 -305 c5 -11 10 -34 10 -51 0 -23 -6 -33 -26 -42 -23 -11
-29 -10 -45 11 -33 41 -18 101 26 101 14 0 29 -8 35 -19z"/>
<path d="M3132 3549 c1 -12 8 -24 15 -26 7 -3 9 3 6 17 -8 29 -25 37 -21 9z"/>
<path d="M3716 3911 c-4 -5 3 -7 14 -4 23 6 26 13 6 13 -8 0 -17 -4 -20 -9z"/>
<path d="M3795 3906 c17 -7 47 -31 67 -54 82 -91 122 -217 138 -436 20 -264
38 -331 103 -380 69 -52 153 -41 217 29 21 23 17 22 -22 -8 -76 -57 -120 -59
-187 -9 -49 37 -70 94 -81 224 -24 275 -32 336 -56 406 -44 131 -135 243 -196
242 -7 -1 1 -7 17 -14z"/>
<path d="M4860 3540 c-39 -94 -235 -163 -414 -145 l-68 6 35 -30 c19 -17 44
-51 56 -76 24 -50 39 -149 24 -158 -5 -4 -25 2 -44 12 -34 19 -35 19 -36 -2
-4 -43 70 -137 107 -137 28 0 175 78 245 130 33 24 90 73 126 110 81 80 99
124 79 194 -11 42 -71 126 -90 126 -4 0 -13 -14 -20 -30z m80 -54 c25 -53 26
-112 1 -153 -54 -87 -285 -203 -406 -203 l-30 0 -1 68 c0 68 -23 132 -58 161
-27 23 -18 26 62 23 173 -7 330 62 366 162 6 18 7 18 26 1 11 -10 29 -36 40
-59z m-135 -296 c-10 -16 -177 -124 -232 -149 -28 -13 -58 -21 -67 -18 -18 7
-91 115 -83 123 3 3 16 -1 29 -9 12 -8 35 -17 50 -21 39 -9 171 20 242 54 73
34 69 32 61 20z"/>
<path d="M3615 3313 c110 -57 172 -182 217 -431 17 -100 22 -165 23 -306 0
-98 3 -161 7 -140 12 70 8 294 -7 403 -26 181 -72 319 -132 399 -30 40 -100
92 -122 92 -9 -1 -3 -8 14 -17z"/>
<path d="M2496 3073 c6 -4 26 -78 43 -163 18 -85 48 -216 67 -290 25 -95 32
-136 23 -139 -12 -4 108 -54 172 -71 l37 -10 -40 -40 -39 -39 -34 16 c-19 9
-31 21 -28 26 3 6 1 7 -5 3 -6 -4 -29 2 -51 14 -44 22 -55 25 -47 12 3 -5 -11
-16 -30 -26 -28 -13 -39 -14 -50 -5 -12 9 -13 9 -9 -3 9 -22 -89 -62 -116 -47
-10 5 -19 11 -19 13 0 2 50 22 111 46 194 74 109 54 -117 -28 -333 -121 -445
-164 -441 -168 2 -3 23 3 47 11 39 14 45 14 69 -2 l26 -16 -40 -18 c-46 -20
-36 -23 15 -5 30 11 39 10 68 -7 37 -22 32 -29 -24 -41 -24 -6 -49 1 -109 29
-125 58 -97 33 37 -33 134 -65 377 -166 385 -159 2 3 -21 15 -51 28 -31 12
-56 26 -56 31 0 8 24 12 44 9 5 -1 12 2 15 7 3 4 36 22 72 39 64 30 66 30 88
12 13 -11 29 -19 36 -19 15 0 184 105 205 127 18 20 -64 -26 -142 -79 -56 -37
-59 -38 -83 -22 l-25 16 88 55 c88 55 122 81 122 92 0 4 -12 13 -26 22 l-26
16 35 22 c55 34 72 28 70 -26 -1 -7 4 -13 9 -13 6 0 8 -7 4 -15 -3 -8 14 -1
38 17 48 36 44 53 -4 18 -16 -12 -30 -17 -30 -11 0 5 16 19 36 31 46 29 36 39
-13 11 l-38 -21 35 31 c32 29 33 31 10 26 -23 -6 -22 -3 10 23 19 16 45 39 56
50 18 17 29 19 63 14 37 -6 41 -9 41 -36 0 -33 16 -67 38 -84 12 -9 9 -15 -19
-38 -30 -26 -38 -28 -89 -22 -48 6 -58 4 -72 -14 -10 -11 -28 -20 -40 -20 -17
0 -19 -3 -9 -9 19 -12 49 -2 65 21 13 18 18 19 51 8 20 -6 44 -9 53 -6 10 3 5
-5 -11 -19 -40 -36 -29 -31 62 24 45 27 122 66 172 87 49 21 86 40 80 42 -14
5 -136 -45 -200 -81 l-53 -30 17 27 c17 26 17 27 -5 51 -17 18 -23 37 -23 69
0 31 -4 43 -13 39 -7 -2 -29 0 -49 6 -33 9 -39 7 -59 -14 l-22 -24 -87 35
c-48 19 -93 34 -100 34 -9 0 -31 77 -70 253 -76 333 -81 350 -97 355 -10 2
-11 1 -4 -5z m154 -723 c0 -3 -14 -13 -31 -22 -24 -14 -34 -15 -49 -5 -27 16
-25 21 12 39 25 11 37 12 50 4 10 -6 18 -13 18 -16z m54 -23 c16 -12 14 -14
-19 -30 -60 -28 -103 -3 -47 27 34 19 44 19 66 3z m-149 -11 c18 -13 17 -15
-27 -37 -45 -22 -47 -22 -74 -5 l-27 18 39 18 c48 23 65 24 89 6z m-183 -10
c16 -12 14 -15 -23 -29 -31 -12 -47 -14 -61 -6 -23 12 -18 20 25 36 41 15 39
15 59 -1z m238 -26 c16 -10 17 -9 -31 -38 -31 -19 -38 -20 -55 -8 -21 16 -21
17 21 39 35 19 45 20 65 7z m-336 -13 c17 -12 14 -15 -29 -31 -38 -15 -52 -16
-73 -7 -23 11 -24 10 -12 -4 15 -18 17 -17 -39 -38 -41 -16 -47 -16 -70 -1
-24 17 -24 17 80 55 120 43 119 43 143 26z m161 1 c33 -15 32 -21 -11 -41 -35
-17 -37 -17 -67 2 l-32 20 35 15 c43 19 43 19 75 4z m235 -23 c17 -9 30 -17
30 -20 0 -8 -168 -105 -268 -155 l-103 -51 -35 21 c-19 12 -32 25 -30 29 3 4
23 13 44 20 33 11 43 11 70 -3 45 -23 53 -19 13 6 l-33 21 38 20 c30 15 44 18
64 10 52 -21 64 -24 38 -8 -36 20 -35 31 2 50 37 19 54 19 88 -1 l27 -16 -27
23 -28 23 38 22 c20 12 38 23 40 23 2 1 16 -6 32 -14z m-330 -25 l25 -19 -45
-20 c-42 -18 -46 -19 -72 -3 -15 9 -28 19 -28 23 0 7 68 38 85 38 6 0 21 -8
35 -19z m180 -5 c0 -3 -18 -14 -41 -25 -32 -17 -44 -19 -55 -9 -21 18 -17 25
24 41 33 13 72 9 72 -7z m-291 -70 c-47 -24 -64 -25 -99 -3 l-35 21 50 17 c48
17 51 17 79 -3 l28 -20 -23 -12z m176 31 c19 -13 18 -15 -17 -31 -35 -17 -88
-15 -88 4 0 7 59 36 81 40 3 1 14 -5 24 -13z m-103 -50 c16 -12 14 -15 -22
-31 -32 -15 -45 -16 -65 -7 -34 16 -31 27 8 40 44 14 59 14 79 -2z m-109 -43
l32 -16 -32 -13 c-27 -11 -37 -11 -72 4 -46 19 -51 29 -18 35 43 8 58 7 90
-10z m79 -44 c31 -16 38 -23 27 -30 -21 -13 -44 -11 -84 8 -35 17 -35 17 -13
30 29 16 22 16 70 -8z"/>
<path d="M2476 2990 c10 -60 95 -445 100 -449 11 -11 0 49 -41 236 -42 187
-74 304 -59 213z"/>
<path d="M3410 2738 c-112 -256 -192 -363 -311 -418 -24 -11 -38 -20 -30 -20
32 0 136 67 182 119 52 58 59 57 34 -3 -9 -20 -13 -42 -9 -47 15 -26 129 -88
187 -104 89 -24 202 -17 285 17 34 14 62 24 62 21 0 -20 -53 -98 -99 -143
-103 -103 -230 -147 -395 -137 -48 3 -86 3 -82 0 3 -3 67 -9 143 -14 156 -9
413 -48 413 -62 0 -5 -9 -22 -20 -37 -28 -39 -50 -105 -50 -149 l0 -36 58 -1
c31 -1 116 -14 187 -30 173 -36 196 -38 220 -20 16 12 17 17 8 27 -10 10 -4
16 29 31 l41 18 -44 29 c-24 15 -66 54 -92 85 -54 63 -109 96 -161 96 -36 0
-106 27 -106 42 0 4 12 14 28 22 25 14 25 15 5 16 -13 0 -35 -15 -55 -39 l-33
-39 -88 19 c-48 11 -117 23 -154 27 l-68 8 50 17 c28 9 70 31 95 47 55 36 73
37 180 6 47 -14 86 -23 88 -21 5 5 -107 45 -143 52 -58 10 -60 12 -33 41 39
43 67 87 83 132 11 32 12 41 2 37 -128 -57 -143 -61 -232 -61 -101 1 -173 21
-256 74 -48 32 -48 32 -34 60 8 15 17 47 21 71 4 24 22 74 40 110 40 80 137
319 132 324 -2 3 -37 -73 -78 -167z m555 -848 c37 -16 176 -130 158 -130 -4 0
-41 27 -82 60 -60 48 -85 61 -130 70 -102 19 -121 28 -51 22 36 -2 83 -12 105
-22z"/>
<path d="M1635 2820 c17 -117 38 -243 56 -325 23 -105 80 -307 86 -302 2 2
-15 78 -37 168 -22 90 -54 238 -70 328 -17 91 -33 167 -36 170 -2 3 -2 -15 1
-39z"/>
<path d="M1663 2835 c-3 -9 -3 -19 1 -22 3 -4 6 1 6 10 0 8 6 18 13 20 9 4 9
6 -1 6 -7 1 -15 -6 -19 -14z"/>
<path d="M2325 2803 c-27 -5 -103 -32 -142 -50 -31 -14 -31 -15 -17 -48 19
-47 18 -50 -10 -18 l-24 28 -87 -29 c-48 -17 -97 -37 -108 -47 l-21 -16 28
-57 c30 -62 125 -171 157 -181 13 -4 42 4 76 20 35 18 58 24 62 17 15 -24 186
62 237 120 10 12 14 19 8 15 -7 -4 -13 9 -17 38 -7 47 -66 210 -74 202 -2 -3
12 -52 31 -109 20 -58 36 -114 36 -126 0 -23 -50 -62 -137 -106 -81 -41 -96
-30 -43 31 17 18 30 37 29 41 0 4 -20 23 -44 42 -31 26 -49 51 -66 95 -13 33
-25 63 -27 66 -1 3 37 18 85 34 48 15 97 31 108 35 l20 9 -20 -1 c-11 0 -29
-2 -40 -5z m-150 -163 c26 -34 65 -73 87 -88 l41 -26 -50 -46 c-28 -25 -71
-56 -97 -70 l-48 -25 -57 61 c-53 56 -129 170 -119 179 5 5 180 74 190 74 4 1
28 -26 53 -59z"/>
<path d="M4176 2788 c-37 -59 -49 -130 -50 -295 -1 -89 -4 -165 -8 -169 -20
-20 3 -131 30 -148 5 -3 1 11 -9 31 -20 40 -25 93 -10 109 5 5 11 86 14 179 3
125 9 185 22 228 10 31 20 56 22 54 6 -6 33 -232 48 -407 l14 -155 -4 150 c-3
83 -14 210 -25 284 -11 74 -18 136 -16 138 17 18 68 -198 82 -347 6 -74 23
-131 24 -82 0 13 6 22 15 22 9 0 15 -9 15 -21 0 -12 8 -23 19 -26 11 -3 27
-21 36 -41 14 -34 15 -34 10 -7 -4 17 -17 41 -31 56 -13 14 -24 30 -24 37 0 6
-11 14 -25 18 -21 5 -25 12 -25 43 0 46 -34 239 -54 305 -21 68 -45 83 -70 44z"/>
<path d="M1675 2765 c8 -55 92 -429 110 -490 14 -46 14 -47 9 -10 -8 61 -105
497 -115 520 -7 14 -8 8 -4 -20z"/>
<path d="M4832 2562 c-34 -47 -63 -131 -69 -201 -5 -53 -11 -69 -30 -84 -16
-13 -23 -29 -23 -53 0 -23 -5 -34 -15 -34 -8 0 -19 -10 -26 -21 -13 -26 -7
-125 9 -141 7 -7 8 2 0 33 -12 54 5 124 28 115 10 -4 14 2 14 18 0 35 20 86
35 86 8 0 14 22 18 63 5 65 36 159 63 193 14 17 15 3 10 -156 -5 -162 -27
-312 -61 -415 -6 -18 -5 -18 5 -2 20 31 59 202 71 314 6 61 9 151 5 206 -3 54
-2 97 3 97 15 0 21 -59 21 -222 0 -95 4 -157 9 -153 14 8 23 -31 16 -68 -5
-24 -4 -28 4 -17 16 23 14 -67 -3 -123 -16 -55 -13 -60 10 -15 25 49 19 201
-9 237 -7 8 -10 59 -9 135 1 66 -1 146 -5 176 -7 46 -12 56 -29 58 -15 2 -29
-6 -42 -26z"/>
<path d="M2420 2445 c-325 -120 -624 -234 -613 -235 29 -1 753 267 772 285 11
11 -22 1 -159 -50z"/>
<path d="M2570 2463 c-322 -116 -504 -183 -624 -232 -81 -33 -152 -58 -157
-55 -5 3 -9 0 -9 -5 0 -6 3 -11 6 -11 7 0 776 285 809 300 22 10 1 12 -25 3z"/>
<path d="M2625 2417 c49 -22 136 -49 141 -44 7 6 -89 42 -136 51 l-35 7 30
-14z"/>
<path d="M3841 2374 c0 -11 3 -14 6 -6 3 7 2 16 -1 19 -3 4 -6 -2 -5 -13z"/>
<path d="M4412 2220 c0 -19 2 -27 5 -17 2 9 2 25 0 35 -3 9 -5 1 -5 -18z"/>
<path d="M1298 2203 c-29 -12 -38 -21 -38 -40 0 -19 -4 -22 -22 -18 -16 4 -34
-3 -61 -25 -40 -34 -41 -50 -2 -50 15 0 29 -9 36 -21 10 -20 17 -21 78 -16 73
6 201 43 201 57 0 16 -124 130 -140 129 -8 -1 -32 -8 -52 -16z m129 -69 c-4
-4 -127 41 -127 47 0 3 12 10 28 15 24 10 31 7 64 -24 21 -20 37 -37 35 -38z
m-79 9 c41 -14 60 -29 25 -20 -10 3 -34 8 -55 11 -20 4 -39 14 -42 22 -5 12
-2 15 11 9 10 -4 37 -14 61 -22z m-3 -32 l90 -19 -96 -1 c-53 0 -118 -4 -145
-7 l-49 -6 30 26 c36 30 52 31 170 7z m35 -47 c-74 -19 -152 -22 -157 -7 -5
15 29 20 132 20 l80 1 -55 -14z"/>
<path d="M2620 2054 c-118 -62 -210 -114 -205 -114 15 0 244 113 322 158 66
40 113 72 103 71 -3 0 -102 -52 -220 -115z"/>
<path d="M2860 2134 c-59 -39 -145 -81 -333 -164 -64 -29 -120 -56 -123 -61
-3 -5 32 7 78 27 46 20 104 44 130 55 77 30 190 89 239 124 l45 32 -4 -52 c-2
-29 1 -68 7 -87 15 -47 70 -109 128 -146 107 -69 401 -143 552 -141 l76 2 -95
8 c-168 15 -382 69 -493 126 -129 65 -196 186 -157 287 5 14 8 26 7 26 -1 0
-27 -17 -57 -36z"/>
<path d="M1034 2144 c-18 -14 -18 -15 4 -4 12 6 22 13 22 15 0 8 -5 6 -26 -11z"/>
<path d="M1804 2138 c75 -43 572 -245 582 -236 2 3 -33 19 -79 38 -45 18 -178
73 -295 122 -199 83 -253 102 -208 76z"/>
<path d="M990 2120 c-9 -6 -10 -10 -3 -10 6 0 15 5 18 10 8 12 4 12 -15 0z"/>
<path d="M1837 1753 c-92 -42 -166 -78 -163 -80 5 -5 223 85 297 123 l47 23
98 -35 c131 -47 426 -136 431 -130 3 2 -89 34 -204 71 -114 36 -235 75 -267
86 -33 10 -62 19 -65 18 -3 0 -82 -35 -174 -76z"/>
<path d="M1898 1705 c-41 -15 -91 -46 -84 -52 5 -5 126 55 126 62 0 3 -1 5 -2
4 -2 0 -19 -6 -40 -14z"/>
<path d="M1994 1681 c-66 -36 -117 -72 -110 -78 4 -5 166 95 166 103 0 6 -2 5
-56 -25z"/>
<path d="M1645 1639 c-17 -17 -17 -21 -5 -29 8 -5 20 -10 26 -10 19 0 24 -38
5 -45 -17 -7 -13 -9 319 -150 107 -45 206 -85 220 -89 42 -10 -124 66 -322
149 -149 61 -188 82 -188 96 0 11 2 19 5 19 13 0 275 -120 420 -192 180 -90
197 -91 30 -1 -137 72 -281 140 -408 191 -82 33 -95 41 -82 52 13 11 65 -11
325 -135 171 -82 311 -153 311 -159 1 -6 1 -15 0 -20 -3 -13 16 2 172 143 75
68 137 127 137 132 0 5 -11 9 -24 9 -13 0 -26 4 -28 10 -3 10 -238 -243 -238
-257 0 -11 105 95 168 170 39 47 63 67 79 67 33 0 28 -10 -20 -47 -23 -18 -82
-70 -132 -116 l-90 -84 -140 73 c-115 60 -510 246 -518 243 -1 0 -11 -9 -22
-20z"/>
<path d="M2050 1605 c-58 -48 -83 -83 -34 -48 49 35 110 92 99 93 -6 0 -35
-20 -65 -45z"/>
<path d="M2130 1580 c-36 -32 -60 -59 -55 -59 6 -1 39 26 75 59 36 32 61 59
55 59 -5 1 -39 -26 -75 -59z"/>
<path d="M2460 1418 c-74 -65 -142 -126 -150 -135 -13 -14 -13 -14 5 -5 40 20
293 247 285 255 -3 3 -66 -49 -140 -115z"/>
<path d="M1655 1519 c-4 -6 -5 -12 -3 -14 2 -2 82 -33 178 -69 96 -35 231 -88
300 -116 156 -64 169 -68 100 -32 -76 41 -307 135 -448 183 -65 21 -116 43
-114 49 3 13 -5 13 -13 -1z"/>
</g>
</svg>
