<?xml version="1.0" standalone="no"?>
<!DOCTYPE svg PUBLIC "-//W3C//DTD SVG 20010904//EN"
 "http://www.w3.org/TR/2001/REC-SVG-20010904/DTD/svg10.dtd">
<svg version="1.0" xmlns="http://www.w3.org/2000/svg"
 width="600.000000pt" height="600.000000pt" viewBox="0 0 600.000000 600.000000"
 preserveAspectRatio="xMidYMid meet">

<g transform="translate(0.000000,600.000000) scale(0.100000,-0.100000)"
fill="#000000" stroke="none">
<path d="M2800 4079 c-515 -134 -809 -730 -656 -1331 13 -51 37 -124 54 -161
l31 -68 36 40 c22 24 54 46 82 55 95 33 270 11 395 -48 125 -59 325 -210 394
-296 l43 -55 -33 -17 c-39 -20 -84 -70 -92 -103 -6 -23 -6 -23 -57 16 -92 69
-141 82 -432 109 -179 16 -264 71 -317 203 -9 23 -17 35 -17 27 -1 -23 43
-111 73 -147 14 -17 48 -42 75 -56 26 -13 75 -51 107 -84 71 -72 133 -106 257
-138 51 -13 110 -31 132 -41 40 -16 146 -16 186 1 13 5 24 -7 48 -52 l32 -58
-27 -66 c-14 -36 -24 -74 -23 -84 2 -10 18 21 34 69 l30 87 -33 62 c-18 34
-32 67 -32 73 0 22 62 103 93 123 18 11 25 21 17 21 -26 0 -87 -58 -110 -105
l-22 -45 -126 6 c-76 3 -139 11 -161 20 -39 16 -293 165 -289 169 6 5 233 -15
296 -25 97 -16 166 -46 222 -96 44 -40 50 -43 50 -24 0 51 84 146 121 137 18
-5 18 -2 -3 36 -48 85 -254 260 -386 326 -43 22 -51 43 -18 49 31 6 62 -7 112
-46 48 -38 127 -82 172 -96 21 -7 22 -5 22 52 0 113 49 213 110 226 69 13 90
-38 50 -125 -11 -24 -19 -57 -18 -74 1 -26 1 -27 5 -5 2 14 15 50 30 81 l26
57 108 7 c101 7 111 6 161 -18 59 -26 125 -87 134 -123 17 -68 -187 -341 -317
-425 -27 -17 -48 -34 -45 -36 2 -3 31 12 63 33 233 149 397 416 449 733 23
140 14 364 -19 492 -102 390 -340 657 -661 739 -105 27 -253 26 -356 -1z m274
-4 c48 -8 113 -26 145 -39 387 -157 632 -654 571 -1156 -11 -85 -49 -241 -73
-298 l-13 -31 -34 46 c-20 26 -58 59 -88 76 -59 33 -115 38 -234 23 -62 -8
-68 -7 -68 9 0 31 -30 55 -70 55 -78 0 -130 -77 -138 -202 -2 -43 -9 -78 -14
-78 -25 0 -88 36 -148 85 -77 63 -94 71 -182 80 -80 9 -133 37 -169 90 -35 50
-99 211 -134 334 -26 90 -27 94 -9 104 32 16 130 123 143 155 l12 30 56 -34
c66 -39 102 -48 182 -42 58 4 58 4 70 -28 11 -32 42 -66 64 -71 65 -15 67 -15
67 1 0 9 11 21 25 28 50 23 95 -39 95 -132 0 -41 -24 -80 -49 -80 -15 0 -17
-6 -11 -47 10 -67 17 -79 55 -97 45 -22 57 -20 20 2 -16 11 -37 27 -45 38 -9
12 -5 10 12 -5 36 -31 112 -40 156 -17 32 17 62 60 63 93 0 10 19 32 42 48 82
60 86 169 8 271 -26 35 -41 66 -46 100 -10 69 -33 124 -69 163 -50 54 -78 61
-243 61 -81 0 -215 5 -298 12 -82 6 -167 8 -188 4 -80 -15 -357 -325 -357
-399 0 -39 28 -101 64 -144 31 -37 118 -83 157 -83 24 0 29 -7 54 -77 77 -219
147 -293 278 -293 36 0 37 0 18 -19 -18 -18 -20 -18 -75 0 -85 29 -203 42
-267 31 -79 -15 -109 -29 -145 -67 -18 -20 -35 -32 -37 -28 -11 20 -48 146
-63 213 -25 119 -30 325 -9 455 73 466 361 812 720 864 89 13 104 12 199 -4z"/>
<path d="M2687 3238 c-15 -11 -11 -13 33 -14 51 0 56 9 10 21 -14 3 -33 0 -43
-7z"/>
<path d="M2456 3184 c-22 -22 -20 -41 2 -21 10 10 24 17 30 17 6 0 14 5 17 10
10 16 -32 11 -49 -6z"/>
<path d="M2750 3123 c0 -12 9 -31 20 -44 l21 -24 -16 39 c-19 49 -25 55 -25
29z"/>
<path d="M2501 3049 c-1 -14 6 -34 14 -45 19 -25 19 -1 0 41 -13 30 -13 30
-14 4z"/>
<path d="M2613 3040 c9 -23 9 -35 -1 -50 -22 -36 -9 -80 25 -80 8 0 6 7 -7 20
-20 20 -20 22 -4 49 15 25 15 34 4 60 -16 40 -32 41 -17 1z"/>
<path d="M2810 2927 c0 -23 -56 -68 -101 -82 -38 -12 -40 -14 -16 -14 42 -1
95 27 114 60 10 16 21 29 25 29 4 0 8 5 8 10 0 6 -7 10 -15 10 -8 0 -15 -6
-15 -13z"/>
<path d="M4371 3769 c-88 -145 -321 -551 -321 -559 0 -3 33 -3 73 1 40 4 150
12 243 18 304 20 334 23 334 32 0 12 -260 11 -434 -1 -77 -6 -141 -9 -143 -7
-1 2 47 93 108 203 168 302 235 434 221 434 -5 0 -41 -54 -81 -121z"/>
<path d="M1440 3684 c-126 -146 -373 -459 -404 -511 -6 -10 60 -12 322 -6
l329 6 6 -194 c9 -265 43 -549 68 -565 11 -7 12 -18 -6 161 -22 226 -32 595
-15 595 9 0 10 3 1 14 -8 10 -10 83 -5 267 5 178 3 251 -4 244 -10 -10 -24
-153 -38 -390 l-6 -110 -266 3 c-147 1 -278 4 -291 5 -21 2 -11 19 106 172 71
94 160 211 199 260 85 109 108 144 101 151 -3 3 -46 -43 -97 -102z"/>
<path d="M4727 3565 c-7 -196 -1 -706 9 -843 3 -39 10 -70 15 -66 5 3 9 191 9
448 0 439 -7 656 -20 656 -4 0 -10 -88 -13 -195z"/>
<path d="M4428 2911 c-91 -58 -160 -175 -174 -296 -8 -66 -24 -84 -59 -65 -23
12 -28 11 -54 -14 -16 -15 -42 -56 -57 -89 -23 -52 -29 -82 -34 -179 -4 -71
-12 -123 -20 -133 -16 -20 -47 -19 -58 1 -15 27 -45 11 -71 -36 -36 -65 -41
-191 -12 -278 18 -54 64 -142 74 -142 2 0 -15 37 -37 82 -40 79 -41 84 -41
182 0 85 4 108 23 143 26 50 42 61 54 39 5 -9 22 -16 38 -16 44 0 60 31 60
117 0 121 29 219 84 288 20 24 27 28 37 18 7 -7 20 -13 29 -13 35 0 51 25 61
95 13 99 56 181 130 250 79 73 94 70 94 -15 -1 -55 -7 -80 -44 -160 -59 -129
-61 -149 -22 -187 53 -53 41 -112 -40 -216 -43 -54 -49 -82 -19 -92 29 -9 25
-33 -21 -137 -44 -100 -61 -208 -41 -258 8 -19 9 -9 5 41 -4 48 -1 82 12 122
31 99 77 124 114 62 43 -74 91 -24 91 97 1 109 16 199 39 221 l20 20 18 -31
c23 -40 40 -47 70 -27 27 18 36 38 64 139 11 37 28 85 39 106 24 48 76 92 104
88 18 -3 20 -9 18 -38 -5 -48 -23 -109 -66 -214 -20 -50 -36 -97 -36 -107 0
-29 23 -40 58 -28 56 19 94 -23 77 -88 -3 -15 -42 -62 -86 -105 -67 -65 -80
-82 -77 -105 2 -20 10 -29 32 -34 43 -12 66 -38 66 -75 0 -35 -33 -70 -99
-103 -20 -11 -45 -29 -56 -42 l-20 -24 25 21 c14 12 48 33 77 48 60 30 83 58
83 101 0 41 -23 71 -65 85 -21 7 -35 18 -35 28 0 9 36 50 80 91 44 42 84 89
90 105 25 69 -19 124 -90 112 -53 -8 -52 1 5 148 26 65 48 141 51 175 7 59 6
60 -20 67 -38 9 -95 -32 -128 -92 -14 -27 -36 -86 -48 -132 -12 -45 -30 -92
-40 -104 -21 -26 -46 -19 -60 17 -5 14 -17 25 -27 25 -50 -1 -65 -42 -73 -196
-7 -123 -19 -174 -40 -174 -5 0 -21 18 -36 41 -21 34 -29 40 -50 35 -28 -7
-29 -6 -9 41 20 48 19 70 -5 83 -28 15 -26 24 24 88 84 106 94 177 34 227
l-31 26 21 52 c11 29 36 90 56 137 40 94 47 167 20 194 -21 21 -23 21 -76 -13z"/>
<path d="M852 2837 c-73 -78 -36 -248 114 -519 30 -54 54 -100 54 -103 0 -2
-19 -3 -42 -2 -43 2 -43 2 -46 -35 -7 -85 45 -183 178 -333 102 -114 115 -137
99 -166 -8 -17 -16 -20 -37 -14 -15 4 -45 8 -67 9 -38 1 -40 0 -43 -32 -7 -74
87 -200 196 -260 62 -35 51 -20 -17 22 -96 59 -176 170 -169 233 3 24 7 28 33
26 17 -1 45 -5 63 -9 63 -13 81 35 37 100 -14 21 -63 80 -110 132 -93 105
-143 194 -147 264 l-3 45 53 -1 c29 -1 52 1 50 5 -2 3 -33 63 -70 132 -149
278 -181 419 -112 494 55 59 113 6 194 -175 59 -134 201 -404 227 -432 19 -22
49 -23 56 -4 3 8 3 31 0 50 -7 43 9 66 47 66 51 0 89 -70 126 -236 40 -179 70
-236 109 -204 8 7 15 27 15 45 0 64 61 85 110 37 35 -36 50 -102 51 -235 1
-88 14 -196 18 -143 1 13 6 16 19 11 9 -4 40 -10 67 -14 41 -6 95 -25 95 -34
0 -1 7 -20 16 -42 l15 -40 -5 38 c-3 22 -11 46 -18 54 -19 24 -72 43 -118 43
-66 0 -78 20 -79 140 -2 132 -15 192 -51 230 -21 22 -37 30 -62 29 -52 -1 -63
-10 -67 -54 -4 -49 -18 -70 -37 -54 -16 13 -48 112 -68 209 -37 186 -101 270
-177 230 -15 -9 -19 -22 -19 -70 0 -33 -4 -60 -10 -60 -5 0 -22 19 -37 43 -41
64 -176 331 -219 430 -21 49 -56 109 -77 133 -33 37 -44 44 -76 44 -26 0 -44
-7 -59 -23z"/>
<path d="M1562 2653 c-24 -9 -42 -62 -42 -121 0 -72 34 -181 96 -308 24 -49
44 -96 44 -102 0 -7 -9 -30 -20 -52 -11 -22 -20 -45 -20 -51 0 -7 11 10 25 37
14 27 25 56 25 65 0 9 -20 59 -45 112 -51 109 -95 251 -95 306 0 41 17 79 42
95 13 8 22 6 38 -9 31 -28 84 -129 109 -207 28 -84 52 -115 97 -124 53 -10 82
-61 115 -203 26 -114 36 -136 66 -150 21 -10 30 -9 50 5 62 40 105 -20 118
-161 6 -72 26 -145 39 -145 3 0 -1 15 -8 33 -8 17 -17 73 -21 122 -8 93 -31
157 -60 169 -25 9 -63 7 -70 -4 -10 -16 -40 -12 -59 8 -9 11 -25 61 -37 113
-32 147 -76 229 -123 229 -42 1 -61 27 -96 130 -25 74 -68 154 -104 193 -24
26 -38 31 -64 20z"/>
<path d="M4334 2563 c-185 -414 -259 -630 -278 -813 -7 -74 -1 -56 24 70 30
146 78 291 182 540 108 259 109 260 103 260 -3 0 -17 -26 -31 -57z"/>
<path d="M1105 2290 c186 -373 253 -487 385 -657 91 -116 160 -225 160 -251 0
-5 -13 -12 -29 -15 -34 -7 -101 -62 -101 -83 0 -8 14 1 31 21 67 76 171 69
266 -19 31 -28 52 -42 46 -31 -6 11 -23 31 -37 44 -14 14 -26 28 -26 33 0 4
27 8 59 8 51 0 66 -5 112 -36 l54 -36 -30 32 c-50 54 -135 77 -186 49 -16 -8
-30 -7 -60 5 -22 9 -51 16 -64 16 -14 0 -25 6 -25 13 0 31 -56 124 -142 238
-137 180 -194 275 -330 544 -125 248 -213 413 -230 430 -5 6 61 -132 147 -305z"/>
<path d="M4727 2261 c-86 -186 -137 -340 -162 -485 -23 -133 -16 -147 10 -21
30 149 54 226 130 417 35 89 63 163 61 165 -2 2 -19 -32 -39 -76z"/>
<path d="M3230 2146 c0 -5 15 -27 34 -50 77 -95 128 -226 112 -290 -10 -39
-22 -31 -19 12 2 35 2 34 -12 -13 -9 -27 -22 -63 -30 -79 -25 -46 -12 -40 33
15 38 46 42 57 42 105 0 63 -24 133 -68 195 -40 58 -91 116 -92 105z"/>
<path d="M3247 1850 c-3 -19 -9 -51 -12 -70 -3 -19 -12 -48 -20 -64 -22 -41
-10 -45 14 -5 22 37 35 99 29 145 l-4 29 -7 -35z"/>
<path d="M3286 1775 c-10 -44 -26 -92 -37 -107 -15 -22 -16 -26 -4 -22 22 9
41 50 55 121 18 93 6 100 -14 8z"/>
<path d="M3157 1783 c-40 -57 -50 -73 -43 -73 11 0 48 46 67 83 26 50 18 47
-24 -10z"/>
<path d="M4230 1784 c-47 -44 -90 -114 -90 -145 0 -8 14 11 31 41 16 30 51 76
77 103 59 60 47 61 -18 1z"/>
<path d="M3176 1747 c-18 -49 -19 -57 -7 -57 10 0 36 88 29 96 -3 2 -13 -15
-22 -39z"/>
<path d="M4320 1765 c0 -5 5 -17 10 -25 5 -8 10 -10 10 -5 0 6 -5 17 -10 25
-5 8 -10 11 -10 5z"/>
<path d="M4350 1700 c6 -11 13 -20 16 -20 2 0 0 9 -6 20 -6 11 -13 20 -16 20
-2 0 0 -9 6 -20z"/>
<path d="M4692 1650 c0 -14 2 -19 5 -12 2 6 2 18 0 25 -3 6 -5 1 -5 -13z"/>
<path d="M1845 1520 c10 -11 20 -20 23 -20 3 0 -3 9 -13 20 -10 11 -20 20 -23
20 -3 0 3 -9 13 -20z"/>
<path d="M3663 1405 c-39 -17 -45 -29 -7 -15 45 17 116 11 174 -15 46 -21 51
-22 30 -5 -30 24 -104 50 -139 50 -14 -1 -41 -7 -58 -15z"/>
<path d="M3845 1410 c-14 -6 -4 -9 38 -9 32 -1 74 -8 95 -16 33 -13 35 -13 17
0 -38 30 -111 42 -150 25z"/>
</g>
</svg>
