<?xml version="1.0" standalone="no"?>
<!DOCTYPE svg PUBLIC "-//W3C//DTD SVG 20010904//EN"
 "http://www.w3.org/TR/2001/REC-SVG-20010904/DTD/svg10.dtd">
<svg version="1.0" xmlns="http://www.w3.org/2000/svg"
 width="600.000000pt" height="600.000000pt" viewBox="0 0 600.000000 600.000000"
 preserveAspectRatio="xMidYMid meet">
<metadata>
Created by potrace 1.16, written by Peter Selinger 2001-2019
</metadata>
<g transform="translate(0.000000,600.000000) scale(0.100000,-0.100000)"
fill="#000000" stroke="none">
<path d="M3187 4843 c12 -4 83 -122 83 -136 0 -4 -7 -7 -15 -7 -45 0 -97 -35
-142 -96 l-47 -64 -58 0 c-50 0 -62 -4 -93 -32 -20 -17 -45 -48 -56 -70 -11
-21 -23 -38 -27 -38 -4 1 -32 43 -62 95 -30 51 -56 92 -59 90 -2 -3 34 -70 79
-150 80 -140 114 -186 69 -92 l-22 44 31 46 c17 24 45 56 62 71 30 24 38 26
148 28 64 1 91 3 59 5 l-58 4 47 60 c26 32 47 59 48 59 1 0 25 9 53 19 l52 19
32 -49 c36 -56 47 -64 23 -16 -45 90 -130 217 -144 216 -10 0 -11 -2 -3 -6z"/>
<path d="M1975 4521 c-136 -33 -210 -169 -156 -286 51 -113 192 -158 310 -99
56 28 111 97 111 138 -1 13 -7 5 -15 -19 -26 -75 -118 -135 -206 -135 -49 0
-132 42 -162 81 -62 82 -54 181 20 251 105 100 282 66 344 -67 10 -22 19 -34
19 -27 0 27 -41 92 -74 117 -35 26 -114 56 -145 54 -9 -1 -29 -4 -46 -8z"/>
<path d="M3585 4245 c-35 -34 -34 -97 1 -149 25 -37 28 -38 71 -32 72 10 133
67 133 126 0 32 -41 46 -79 27 -29 -14 -31 -14 -31 2 0 22 -31 51 -54 51 -9 0
-28 -11 -41 -25z m82 -26 c4 -23 10 -28 22 -23 35 15 78 16 84 1 10 -26 -26
-81 -68 -104 -61 -34 -87 -30 -113 16 -25 43 -27 72 -11 104 15 28 28 37 57
37 17 0 24 -7 29 -31z"/>
<path d="M2905 3995 c-22 -8 -57 -32 -78 -55 -36 -38 -40 -40 -100 -40 -121 0
-215 -71 -225 -169 -5 -53 15 -103 48 -121 14 -8 20 -21 20 -46 0 -19 5 -44
10 -55 8 -14 6 -27 -6 -50 -26 -50 1 -109 51 -109 20 0 24 -7 30 -47 14 -92
45 -143 118 -189 20 -13 37 -28 37 -33 0 -14 -71 -39 -187 -66 -181 -43 -239
-80 -290 -187 -27 -56 -94 -262 -92 -284 0 -5 21 52 47 126 85 246 123 283
340 333 l62 14 -6 -31 c-4 -25 3 -48 31 -101 l37 -70 -7 -107 c-4 -69 -2 -127
5 -163 15 -75 23 -65 9 11 -8 44 -8 82 1 151 l12 92 -41 84 c-44 88 -48 133
-12 143 9 3 35 14 57 24 48 22 55 18 47 -21 -3 -18 -1 -29 6 -29 14 0 14 40 1
74 -5 15 -29 38 -53 52 -78 48 -103 101 -112 242 -5 79 -4 84 8 53 15 -38 60
-81 86 -81 21 0 42 17 65 50 l16 24 0 -26 c0 -14 7 -31 15 -38 17 -14 21 0 4
17 -7 7 -9 29 -4 63 6 45 10 51 28 48 15 -2 25 -14 32 -39 15 -53 43 -89 81
-105 60 -25 114 7 129 76 5 22 14 32 33 37 15 3 37 13 49 20 16 11 27 12 42 4
50 -27 27 -108 -39 -134 -33 -13 -40 -21 -46 -52 -9 -49 5 -89 33 -93 32 -5
77 63 98 145 9 38 26 99 37 136 25 82 26 148 3 183 -9 13 -40 36 -70 50 -69
33 -118 87 -140 155 -10 30 -27 66 -37 82 -38 53 -117 76 -183 52z m-1 -259
c23 -35 96 -83 168 -110 61 -23 63 -25 66 -62 l3 -39 -23 35 c-29 42 -70 64
-105 55 -34 -8 -93 -68 -93 -93 0 -25 -13 -34 -35 -26 -14 6 -16 15 -12 47 4
27 2 36 -4 26 -5 -7 -9 -23 -10 -34 0 -15 -3 -12 -11 10 -16 45 -38 65 -70 65
-33 0 -88 -25 -88 -41 0 -6 -4 -7 -10 -4 -22 14 -7 33 45 54 51 21 145 107
145 132 0 17 18 9 34 -15z m-90 -158 c20 -29 21 -127 2 -173 -8 -19 -26 -40
-41 -47 -22 -10 -28 -8 -50 12 -56 53 -58 159 -4 205 38 31 73 32 93 3z m278
-8 c29 -29 30 -34 26 -100 -5 -87 -28 -124 -81 -128 -28 -2 -43 3 -68 26 -30
26 -33 36 -37 96 -4 64 -3 67 31 101 46 46 86 47 129 5z"/>
<path d="M1620 3898 c-54 -37 -57 -49 -26 -112 36 -74 104 -174 125 -185 21
-12 95 19 104 43 8 19 -18 76 -34 76 -5 0 -21 -7 -35 -16 -13 -9 -26 -15 -28
-13 -2 2 -18 32 -34 66 -28 54 -30 63 -16 74 27 22 36 47 24 69 -14 26 -39 25
-80 -2z m68 -12 c2 -10 -6 -28 -18 -41 l-21 -22 20 -53 c32 -84 70 -112 102
-74 12 14 14 14 26 -2 21 -29 15 -52 -17 -69 -54 -28 -62 -22 -133 97 -37 61
-67 116 -67 122 0 14 81 67 95 63 5 -2 12 -12 13 -21z"/>
<path d="M3915 3637 c-10 -8 -15 -19 -11 -25 9 -15 -36 -58 -57 -54 -11 2 -21
-6 -27 -24 -13 -32 -7 -54 14 -54 8 0 18 -9 21 -20 3 -11 11 -20 16 -20 6 0 5
-9 -2 -21 -9 -17 -8 -23 2 -30 22 -14 69 -11 69 4 0 18 65 38 78 25 16 -16 51
1 58 28 4 14 2 30 -5 37 -16 16 -14 37 6 59 13 15 14 23 5 43 -12 25 -47 35
-54 14 -2 -7 -11 -7 -28 0 -14 5 -21 10 -17 10 4 1 3 10 -3 21 -12 23 -38 26
-65 7z m55 -24 c0 -10 12 -24 27 -30 22 -11 29 -10 45 3 16 16 18 15 24 0 4
-10 2 -27 -4 -39 -19 -41 -21 -56 -6 -67 17 -15 17 -20 -1 -44 -11 -15 -17
-16 -28 -7 -19 15 -75 3 -91 -21 -17 -25 -51 -20 -51 7 -1 29 -26 75 -42 75
-21 0 -17 50 5 50 25 1 72 46 72 70 0 15 6 20 25 20 17 0 25 -6 25 -17z"/>
<path d="M3093 3177 c-18 -12 -47 -31 -65 -42 -29 -18 -33 -26 -35 -65 -1 -25
1 -38 5 -30 6 14 13 13 57 -5 53 -22 56 -27 63 -91 3 -29 -4 -59 -23 -105 -24
-56 -27 -72 -21 -132 5 -58 3 -76 -19 -130 -14 -34 -29 -81 -32 -104 -5 -38
-9 -43 -31 -43 l-25 0 7 228 c3 125 8 259 11 297 4 66 4 67 -5 20 -14 -74 -29
-400 -23 -477 l6 -68 -205 0 c-113 0 -227 3 -253 7 l-47 6 6 56 c12 120 16
217 6 181 -5 -19 -12 -81 -16 -137 l-7 -103 -102 0 c-95 0 -103 2 -125 25 -29
31 -10 33 39 3 l36 -21 -24 26 c-23 26 -23 27 -4 27 11 0 30 -11 43 -25 27
-29 42 -25 15 5 -28 31 6 26 35 -5 13 -14 28 -25 34 -25 6 0 -5 15 -24 33 -30
28 -43 33 -80 32 -25 0 -49 4 -53 10 -5 6 -6 2 -3 -8 5 -15 2 -17 -13 -12 -11
3 -22 1 -26 -5 -3 -5 -15 -10 -27 -10 -16 0 -19 -5 -16 -25 l5 -25 -246 -2
c-232 -1 -225 -2 129 -8 206 -4 683 -9 1060 -12 377 -3 627 -3 556 -1 l-128 4
6 27 c16 70 17 190 2 260 l-15 73 49 101 c53 107 54 128 4 128 -19 0 -37 -25
-112 -157 -49 -87 -104 -186 -122 -221 -18 -34 -49 -77 -69 -94 -30 -26 -35
-37 -34 -70 l2 -38 -106 0 -106 0 7 40 c3 22 18 66 32 97 22 50 25 67 20 125
-5 57 -2 78 19 134 26 70 32 132 15 165 -13 24 -16 24 123 -5 119 -26 164 -43
207 -80 l25 -21 -25 28 c-38 44 -83 62 -223 91 -222 46 -265 74 -189 121 33
20 102 75 92 74 -3 0 -19 -10 -37 -22z m431 -463 c8 -59 8 -207 0 -256 l-7
-38 -76 0 c-82 0 -138 18 -66 21 34 2 36 3 10 6 -42 6 -56 23 -19 23 16 1 43
7 59 16 26 12 27 14 5 9 -69 -15 -108 -17 -114 -6 -5 7 2 11 16 11 13 1 37 7
53 15 17 8 21 13 10 11 -72 -15 -85 -17 -85 -9 0 4 29 26 65 48 36 22 61 41
55 43 -16 6 9 32 30 32 41 0 48 -53 24 -185 -5 -27 -4 -28 7 -10 7 11 15 54
17 97 4 72 3 78 -22 102 l-26 26 22 45 c12 25 25 45 29 45 3 0 9 -21 13 -46z"/>
<path d="M1168 2433 c-27 -31 -38 -61 -38 -102 0 -36 4 -44 35 -63 46 -30 53
-59 26 -113 -11 -23 -21 -45 -21 -48 0 -4 14 -22 31 -41 37 -43 35 -70 -6 -74
-49 -4 -105 -22 -105 -34 0 -7 4 -7 13 0 6 5 35 13 64 17 45 6 52 4 56 -12 4
-16 5 -16 6 0 1 20 40 23 60 5 11 -10 13 -10 7 0 -9 15 99 17 140 2 l27 -11
-6 -202 c-3 -113 -2 -193 3 -182 14 34 12 393 -2 402 -7 4 -46 10 -86 14 -39
3 -75 9 -79 12 -4 4 1 23 10 42 22 46 21 73 -3 126 -11 24 -20 36 -20 26 0
-10 7 -32 16 -49 15 -29 15 -35 -2 -90 -14 -41 -24 -58 -36 -58 -11 0 -18 8
-18 19 0 11 -11 33 -25 49 -30 36 -31 42 -5 92 27 52 18 82 -31 114 -31 21
-39 32 -39 57 0 34 33 104 52 112 7 3 8 6 2 6 -6 1 -18 -7 -26 -16z"/>
<path d="M1547 2433 c-4 -3 -7 -25 -7 -47 0 -72 169 -407 312 -618 l38 -58
-202 -3 -203 -2 240 -1 c132 -1 229 1 215 3 -14 3 -33 12 -43 21 -30 26 -181
288 -269 464 -69 140 -79 167 -76 205 2 24 3 43 2 43 0 0 -4 -3 -7 -7z"/>
<path d="M5340 2423 c-246 -26 -776 -110 -766 -120 3 -3 89 9 193 26 206 33
626 91 662 91 15 0 21 -5 18 -12 -3 -7 -37 -83 -75 -168 -102 -226 -212 -500
-201 -500 5 0 9 4 9 10 0 5 63 156 140 336 77 180 140 331 140 335 0 9 -51 9
-120 2z"/>
<path d="M3852 2374 l21 -36 -66 -201 c-37 -111 -78 -241 -92 -289 -15 -48
-33 -95 -41 -103 -11 -11 -38 -15 -100 -15 -77 0 -85 2 -80 18 23 78 76 307
76 330 0 21 -8 35 -25 46 -24 16 -25 15 -25 -2 0 -25 -51 -72 -81 -73 -16 -1
-19 -3 -6 -6 9 -2 17 -11 17 -18 0 -8 -16 -100 -35 -205 -19 -105 -35 -199
-34 -208 2 -27 44 175 65 304 17 111 20 120 51 147 18 16 33 35 33 43 0 8 6
11 15 8 8 -4 15 -15 15 -25 0 -11 -25 -120 -55 -243 -53 -216 -71 -313 -36
-192 l17 60 86 2 c47 1 93 6 103 11 16 10 54 118 182 529 28 89 26 126 -7 144
-19 10 -19 9 2 -26z"/>
<path d="M4442 2093 c-39 -98 -86 -218 -104 -268 -31 -84 -35 -90 -63 -93 -34
-4 -185 -63 -223 -88 l-25 -17 29 -15 c16 -9 63 -28 104 -43 66 -24 75 -29 73
-50 -3 -29 5 -8 162 410 68 184 123 336 121 338 -2 2 -35 -76 -74 -174z"/>
<path d="M2404 2138 c201 -5 499 -5 700 0 332 8 312 9 -349 9 -661 0 -680 -1
-351 -9z"/>
<path d="M1960 2123 c1 -22 28 -57 57 -72 15 -8 220 -11 710 -9 573 1 653 3
478 10 -115 5 -423 7 -683 4 -337 -4 -480 -3 -495 5 -35 18 -57 51 -45 66 8
10 6 13 -6 13 -9 0 -16 -8 -16 -17z"/>
<path d="M4841 2106 c-24 -13 -50 -51 -51 -73 0 -23 39 -53 70 -53 42 0 70 31
70 78 0 60 -35 78 -89 48z"/>
<path d="M4042 1715 c-123 -40 -226 -76 -229 -79 -9 -9 119 -63 276 -117 l144
-49 106 35 c111 37 388 116 630 181 79 21 139 40 134 41 -23 8 -596 -150 -767
-211 -73 -26 -103 -32 -125 -26 -51 14 -366 132 -374 140 -4 4 23 15 60 25 84
23 363 114 383 126 36 21 -26 4 -238 -66z"/>
<path d="M2418 1717 c187 -5 417 -5 605 0 292 9 281 10 -303 10 -584 0 -595
-1 -302 -10z"/>
<path d="M2735 1580 l-640 -5 645 -4 c355 -3 682 -3 727 -2 93 4 103 -4 103
-81 1 -35 3 -40 11 -25 17 28 2 83 -28 107 -29 22 -87 25 -130 7 -13 -6 -28
-6 -35 -1 -8 5 -282 7 -653 4z"/>
<path d="M2263 1443 c236 -2 618 -2 850 0 232 1 40 2 -428 2 -467 0 -657 -1
-422 -2z"/>
</g>
</svg>
