<?xml version="1.0" standalone="no"?>
<!DOCTYPE svg PUBLIC "-//W3C//DTD SVG 20010904//EN"
 "http://www.w3.org/TR/2001/REC-SVG-20010904/DTD/svg10.dtd">
<svg version="1.0" xmlns="http://www.w3.org/2000/svg"
 width="600.000000pt" height="600.000000pt" viewBox="0 0 600.000000 600.000000"
 preserveAspectRatio="xMidYMid meet">
<metadata>
Created by potrace 1.16, written by Peter Selinger 2001-2019
</metadata>
<g transform="translate(0.000000,600.000000) scale(0.100000,-0.100000)"
fill="#000000" stroke="none">
<path d="M3245 5013 c-16 -2 -95 -10 -175 -19 -651 -69 -1386 -237 -2037 -465
-154 -54 -98 -43 83 17 677 221 1375 373 2069 449 204 22 205 22 145 22 -30 0
-68 -2 -85 -4z"/>
<path d="M3451 4969 c-1 -8 6 -67 14 -129 8 -63 36 -301 61 -530 66 -604 112
-970 143 -1120 12 -61 13 -19 1 55 -18 112 -59 452 -110 906 -61 543 -106 882
-109 818z"/>
<path d="M3130 4944 c-675 -81 -1257 -201 -1745 -362 -168 -55 -428 -153 -422
-158 2 -2 41 10 88 27 303 112 554 188 844 259 402 98 667 144 1365 239 45 6
53 9 25 9 -22 0 -92 -7 -155 -14z"/>
<path d="M2998 4561 c-22 -18 -29 -37 -47 -133 -24 -135 -145 -869 -162 -985
-7 -54 -16 -83 -24 -83 -15 0 -40 -54 -31 -68 3 -5 -8 -35 -25 -66 -23 -42
-29 -63 -24 -85 5 -22 10 -28 25 -24 28 7 39 -26 15 -43 -16 -12 -17 -14 -2
-14 20 0 39 33 31 54 -3 9 -17 16 -29 16 -35 0 -34 27 3 97 37 70 54 83 106
83 35 0 36 -1 55 -65 23 -74 15 -105 -26 -105 -30 0 -46 -31 -29 -56 13 -17
14 -16 9 9 -6 30 22 51 37 27 6 -10 13 -4 26 23 16 34 16 40 1 97 -13 46 -15
66 -6 81 6 12 8 32 3 47 -9 34 -20 -32 100 612 96 515 103 556 87 572 -27 28
-64 32 -93 9z"/>
<path d="M876 4264 c8 -321 66 -752 160 -1194 48 -227 185 -782 191 -776 3 2
-12 71 -32 153 -173 703 -273 1270 -305 1733 -17 245 -18 255 -14 84z"/>
<path d="M3945 3092 c-52 -25 -74 -51 -82 -95 -8 -49 3 -84 33 -112 21 -20 26
-34 27 -77 0 -29 -3 -69 -7 -89 -7 -31 -5 -37 11 -41 14 -4 22 -17 27 -48 5
-30 17 -53 41 -77 31 -31 39 -34 71 -28 48 8 77 -12 99 -70 10 -25 16 -47 14
-48 -124 -78 -157 -112 -199 -203 -29 -65 -43 -74 -86 -57 -15 5 -11 12 22 40
l39 33 -30 0 c-16 0 -55 7 -85 15 -87 24 -290 55 -350 54 -40 0 -12 -7 105
-24 185 -28 305 -53 305 -64 0 -4 -9 -16 -21 -27 -20 -18 -22 -18 -97 23 -60
32 -92 42 -144 46 -61 6 -70 4 -91 -16 -13 -12 -30 -33 -36 -45 -12 -23 -11
-23 11 -15 12 4 47 8 75 7 68 -1 58 9 -15 17 l-57 6 55 3 55 2 -45 13 -45 14
83 -3 c74 -3 89 -7 140 -38 65 -40 113 -58 153 -58 16 0 29 -2 29 -4 0 -2 -11
-29 -25 -60 -28 -63 -32 -64 -124 -25 -49 22 -54 23 -47 10 3 -5 -29 -35 -72
-67 -42 -32 -96 -76 -119 -97 l-42 -38 -17 33 c-32 64 -81 98 -98 69 -4 -5 3
-7 14 -4 15 4 27 -8 57 -55 32 -51 47 -65 93 -86 69 -31 169 -50 201 -37 54
20 87 80 193 350 82 207 90 216 132 145 67 -114 81 -243 40 -381 -42 -145
-115 -242 -222 -294 -106 -53 -215 -44 -363 29 -40 20 -83 46 -95 57 -12 11
-34 21 -49 21 -34 2 -58 23 -95 81 -32 52 -76 71 -124 54 -42 -15 -58 -14 -58
4 0 14 43 30 105 39 17 3 -1 3 -40 1 -62 -3 -67 -1 -50 11 10 8 39 14 64 14
34 0 42 3 31 10 -33 22 -114 1 -116 -30 -1 -8 -2 -25 -3 -37 -1 -18 -7 -23
-29 -23 -28 0 -62 -26 -62 -47 0 -27 81 -31 101 -6 13 15 12 15 -6 5 -27 -14
-94 -1 -74 14 16 12 100 26 168 28 42 1 47 -2 75 -42 l31 -44 -30 -24 c-16
-14 -84 -61 -150 -106 l-119 -82 -136 23 c-237 39 -620 120 -620 130 0 4 30
22 68 40 155 76 1040 556 1057 573 20 21 -297 -146 -835 -440 -356 -194 -332
-178 -284 -191 263 -69 638 -141 731 -141 35 0 127 54 243 142 73 55 91 64
100 53 6 -8 26 -17 43 -21 18 -4 72 -31 120 -60 48 -29 101 -55 117 -59 17 -4
30 -11 30 -16 0 -5 47 -8 108 -6 89 2 114 7 150 26 39 20 46 21 60 8 67 -58
199 -86 329 -70 48 6 88 10 88 9 1 0 -2 -57 -5 -126 -5 -102 -10 -133 -29
-168 -12 -24 -30 -45 -39 -48 -9 -3 -37 -15 -62 -27 -41 -20 -57 -22 -225 -20
-228 2 -436 30 -500 68 -42 24 -44 24 -42 5 1 -22 17 -28 143 -54 121 -26 286
-38 447 -35 l155 4 -19 -37 c-11 -21 -22 -58 -26 -83 -5 -40 -9 -45 -32 -46
-25 -1 -25 -2 4 -8 19 -4 31 -2 33 5 2 8 60 13 190 16 160 4 195 8 241 26 29
12 62 30 73 42 10 11 27 20 36 20 42 0 58 55 20 69 -32 11 -236 62 -275 68
-17 3 -55 -3 -83 -12 -28 -9 -54 -15 -57 -12 -3 3 7 21 21 39 33 44 50 125 43
207 -7 93 1 113 47 126 52 15 58 34 56 175 -2 98 2 127 23 197 38 121 48 217
39 373 -9 147 -26 199 -92 273 -16 19 -27 37 -23 40 3 4 0 14 -7 22 -10 12
-10 21 -1 41 23 52 3 140 -38 166 -17 10 -21 23 -21 68 0 65 -26 128 -65 158
-31 24 -101 30 -137 11 -17 -9 -25 -6 -49 17 -39 37 -133 45 -194 16z m93
-298 c20 -4 56 -2 80 5 49 13 77 3 87 -30 7 -22 -18 -59 -41 -59 -36 0 -20
-129 22 -175 21 -23 22 -28 10 -62 l-13 -38 -12 38 c-16 46 -44 67 -94 67 -49
0 -73 13 -92 50 -20 39 -19 47 10 57 18 6 22 12 15 23 -8 13 -11 12 -23 -4
-17 -24 -22 -16 -36 58 -12 68 -13 93 -1 56 8 -24 8 -23 9 8 1 20 -3 31 -9 27
-5 -3 -10 -4 -10 -1 0 2 -3 12 -6 21 -5 12 3 10 31 -9 20 -14 53 -29 73 -32z
m163 -561 c67 -138 258 -148 341 -19 l20 31 -5 -105 c-3 -70 -14 -140 -33
-210 -23 -88 -28 -126 -28 -237 -1 -72 -3 -134 -6 -137 -3 -2 -50 -12 -104
-22 -146 -25 -264 -16 -351 25 l-68 31 55 58 c94 98 152 246 152 387 1 95 -11
140 -59 220 l-36 60 43 37 43 37 7 -56 c4 -31 17 -76 29 -100z m-350 -226 l46
-12 -36 -83 c-20 -46 -46 -95 -59 -109 -21 -23 -28 -25 -80 -20 -56 5 -193 46
-191 56 0 4 53 48 117 99 87 69 122 92 137 87 11 -3 41 -11 66 -18z"/>
<path d="M3620 3038 c-101 -45 -772 -312 -1000 -398 -410 -154 -1279 -456
-1334 -464 -5 0 -19 24 -32 54 -13 30 -23 51 -24 45 0 -12 33 -102 41 -110 7
-6 420 124 694 220 105 36 217 76 250 87 344 119 1434 553 1464 584 9 9 -17 1
-59 -18z"/>
<path d="M3522 1505 c-177 -64 -261 -141 -311 -282 -18 -51 -20 -69 -12 -100
13 -48 61 -95 124 -123 71 -31 274 -70 416 -80 102 -6 377 2 387 13 1 1 -102
2 -229 3 -245 1 -378 17 -525 63 -122 38 -179 102 -161 182 15 67 50 129 101
180 62 62 117 94 242 141 56 20 92 37 81 37 -11 0 -62 -15 -113 -34z"/>
</g>
</svg>
