<?xml version="1.0" standalone="no"?>
<!DOCTYPE svg PUBLIC "-//W3C//DTD SVG 20010904//EN"
 "http://www.w3.org/TR/2001/REC-SVG-20010904/DTD/svg10.dtd">
<svg version="1.0" xmlns="http://www.w3.org/2000/svg"
 width="600.000000pt" height="600.000000pt" viewBox="0 0 600.000000 600.000000"
 preserveAspectRatio="xMidYMid meet">

<g transform="translate(0.000000,600.000000) scale(0.100000,-0.100000)"
fill="#000000" stroke="none">
<path d="M2723 5013 c164 -2 430 -2 590 0 161 1 27 2 -298 2 -324 0 -456 -1
-292 -2z"/>
<path d="M2406 4936 c-5 -44 -6 -119 -2 -167 l7 -89 -538 -3 -538 -2 613 -3
612 -2 0 -140 c0 -89 4 -140 10 -140 7 0 10 50 8 143 l-3 142 -77 3 -78 3 -2
167 c-3 157 -4 162 -12 88z"/>
<path d="M3604 4715 c0 -159 2 -223 3 -142 2 82 2 212 0 290 -1 78 -3 12 -3
-148z"/>
<path d="M2488 4923 c17 -2 47 -2 65 0 17 2 3 4 -33 4 -36 0 -50 -2 -32 -4z"/>
<path d="M2485 4890 c3 -5 24 -10 45 -10 21 0 42 5 45 10 4 6 -13 10 -45 10
-32 0 -49 -4 -45 -10z"/>
<path d="M2657 4803 c94 -2 252 -2 350 0 98 1 21 2 -172 2 -192 1 -273 -1
-178 -2z"/>
<path d="M2685 4760 c-18 -4 34 -8 125 -8 91 0 145 3 130 8 -32 10 -215 10
-255 0z"/>
<path d="M2655 4680 c-33 -4 47 -7 180 -7 153 0 216 3 175 7 -79 9 -273 9
-355 0z"/>
<path d="M1307 4528 c-8 -177 -7 -644 3 -798 4 -70 7 92 8 413 1 290 0 527 -1
527 -2 0 -7 -64 -10 -142z"/>
<path d="M2460 4632 c-26 -12 -20 -29 10 -28 20 1 28 6 27 19 -1 18 -12 20
-37 9z"/>
<path d="M2305 4620 c3 -5 17 -10 31 -10 13 0 24 5 24 10 0 6 -14 10 -31 10
-17 0 -28 -4 -24 -10z"/>
<path d="M3050 4609 c-73 -3 -33 -5 130 -6 129 -1 231 0 225 2 -20 7 -253 10
-355 4z"/>
<path d="M2723 4528 c-87 -84 -270 -286 -334 -368 -35 -44 -59 -106 -59 -149
0 -27 -1 -27 68 8 57 29 118 87 269 256 l71 80 169 -7 c92 -4 285 -4 428 0
l260 7 -425 5 -425 5 40 45 c22 25 49 56 60 70 17 22 16 22 -12 -3 -36 -34
-58 -32 -86 5 l-20 26 24 31 c13 16 26 30 29 30 3 1 11 -12 17 -29 9 -24 17
-30 40 -29 26 0 26 1 6 9 -22 9 -43 39 -43 60 0 20 44 6 56 -18 16 -32 24 -38
24 -18 0 19 -43 66 -61 66 -6 0 -50 -37 -96 -82z m-333 -439 c0 -14 7 -19 25
-19 38 0 30 -16 -17 -36 -24 -10 -46 -20 -50 -22 -5 -3 5 55 18 96 6 19 24 5
24 -19z"/>
<path d="M1647 4563 c161 -2 425 -2 585 0 161 1 30 2 -292 2 -322 0 -453 -1
-293 -2z"/>
<path d="M3065 4540 c-4 -7 55 -10 170 -10 115 0 174 3 170 10 -4 6 -72 10
-170 10 -98 0 -166 -4 -170 -10z"/>
<path d="M1445 4440 c-13 -5 22 -9 95 -9 78 -1 110 2 100 9 -18 12 -167 12
-195 0z"/>
<path d="M3035 4440 c-16 -4 69 -8 190 -8 121 0 207 4 190 8 -16 4 -102 8
-190 8 -88 0 -173 -4 -190 -8z"/>
<path d="M1623 4373 c59 -2 154 -2 210 0 56 1 8 3 -108 3 -115 0 -161 -2 -102
-3z"/>
<path d="M1555 4289 c-52 -4 -30 -6 84 -7 85 -1 152 0 150 2 -8 7 -167 11
-234 5z"/>
<path d="M1505 4150 c17 -4 140 -8 275 -8 135 0 259 4 275 8 17 4 -107 8 -275
8 -168 0 -291 -4 -275 -8z"/>
<path d="M2587 4153 c-11 -11 -8 -491 3 -498 7 -4 10 82 10 249 0 141 -1 256
-3 256 -2 0 -7 -3 -10 -7z"/>
<path d="M3163 4031 c-89 -31 -126 -50 -206 -109 -63 -47 -155 -157 -191 -229
-48 -94 -29 -200 42 -237 24 -12 31 -25 40 -71 6 -31 19 -72 28 -91 22 -46 89
-102 131 -110 18 -3 33 -11 33 -18 0 -6 -16 -60 -35 -120 -19 -60 -35 -119
-35 -130 0 -12 -12 -58 -26 -104 -26 -80 -28 -83 -53 -78 -104 22 -462 68
-705 91 l-69 7 8 -38 c18 -98 183 -629 193 -620 2 3 -39 147 -93 321 -53 174
-95 319 -92 321 5 5 375 -40 671 -82 98 -14 181 -23 184 -19 3 3 -6 5 -21 5
-36 0 -40 11 -17 62 10 24 22 63 26 85 l6 42 50 -20 c72 -28 93 -45 106 -85 9
-31 7 -44 -25 -118 -19 -45 -45 -96 -58 -112 l-23 -29 -13 80 c-7 44 -15 72
-17 63 -8 -37 83 -505 122 -628 27 -84 15 -5 -29 187 -4 15 1 26 15 33 19 10
20 9 14 -17 l-6 -28 19 27 c11 15 37 43 59 63 l39 35 -68 -35 c-37 -19 -71
-35 -75 -35 -5 0 -19 56 -32 125 l-24 125 23 21 c24 23 91 153 91 179 1 25 38
-26 50 -68 5 -20 10 -66 10 -102 0 -67 17 -110 44 -110 8 0 16 -9 19 -20 4
-16 0 -20 -19 -20 -14 0 -36 -12 -50 -27 -30 -32 -23 -45 9 -15 26 24 66 28
100 11 l22 -12 -22 25 c-13 13 -23 29 -23 35 0 9 138 25 148 17 2 -1 -20 -18
-50 -38 -59 -41 -58 -46 5 -15 58 30 157 133 192 201 28 54 32 57 85 72 58 16
128 20 168 10 28 -8 24 -23 -31 -123 -80 -141 -215 -260 -362 -320 -57 -22
-78 -37 -110 -78 -49 -63 -80 -77 -148 -70 l-52 5 35 -15 c21 -9 49 -13 70 -9
33 5 31 3 -25 -30 -82 -47 -94 -49 -221 -36 -141 15 -263 40 -478 98 -92 25
-170 43 -172 41 -4 -4 168 -58 229 -73 25 -6 27 -8 13 -23 -53 -59 -61 -174
-17 -266 76 -162 264 -269 621 -355 152 -36 242 -50 337 -50 65 0 73 2 92 26
11 14 21 28 23 32 2 4 28 6 59 4 l57 -4 93 -105 c52 -57 102 -109 112 -114 29
-16 57 6 57 45 0 40 -45 154 -88 225 -18 28 -32 53 -32 56 0 3 10 5 23 6 12 0
16 3 10 6 -7 2 -34 0 -60 -5 -111 -24 -297 -34 -403 -23 -321 35 -555 203
-577 415 l-6 56 130 -6 131 -7 78 42 c96 52 244 149 244 161 0 4 -17 11 -37
15 l-38 7 50 18 c92 32 156 71 234 143 20 18 52 37 70 40 18 4 61 21 94 38 56
28 62 29 73 14 18 -24 34 -106 34 -173 0 -107 -49 -244 -112 -315 -33 -37 -33
-37 -145 -47 -102 -9 -114 -9 -145 9 -39 22 -88 35 -88 23 0 -5 19 -15 43 -22
l42 -14 -35 -7 c-19 -5 35 -6 120 -4 131 3 271 20 342 41 12 4 23 -8 39 -43
34 -71 34 -219 0 -291 -16 -33 -31 -52 -45 -55 -20 -4 -20 -4 2 -6 27 -1 56
41 78 115 l15 52 54 7 c43 5 61 2 93 -14 68 -35 242 -102 279 -108 34 -6 53 6
53 32 -1 6 -5 2 -11 -7 -5 -10 -16 -18 -23 -18 -7 0 -87 30 -177 66 -149 60
-169 66 -216 61 -52 -5 -53 -5 -53 21 0 15 -3 44 -6 65 l-7 37 41 0 c35 0 45
5 69 35 15 19 36 35 45 35 19 0 133 -94 252 -207 46 -45 81 -71 85 -65 4 6 27
20 51 31 25 11 37 20 27 20 -10 1 -35 -8 -56 -18 l-38 -20 -34 35 -33 34 49
50 c27 27 69 57 92 66 54 21 49 30 -6 13 -41 -12 -93 -54 -124 -98 l-16 -25
-63 60 c-135 128 -196 162 -219 123 -21 -37 -38 -48 -80 -54 l-46 -7 -25 44
c-17 30 -30 42 -44 41 -10 -1 -48 -5 -84 -9 l-65 -7 32 37 c52 58 80 123 108
249 4 22 10 27 23 22 42 -16 165 -21 272 -10 l115 12 -180 -1 c-99 0 -190 3
-201 7 -18 6 -22 19 -28 71 -8 76 -22 123 -46 151 -22 25 -34 99 -20 125 5 10
10 33 10 52 1 79 -8 287 -15 329 l-7 47 56 21 c39 14 80 21 131 21 70 0 78 -2
187 -59 105 -55 248 -112 280 -111 7 1 -21 14 -62 29 -81 30 -140 58 -140 67
0 3 20 37 46 76 25 39 43 72 40 75 -5 6 -61 -69 -83 -112 -9 -16 -17 -31 -18
-33 -2 -2 -40 16 -85 40 -78 40 -87 43 -164 43 -66 0 -91 -5 -136 -26 l-56
-26 -28 61 c-38 80 -135 178 -212 213 -53 24 -56 27 -38 40 97 70 133 161 103
266 -15 56 -74 115 -149 151 -60 29 -66 35 -84 81 -40 106 -49 124 -80 154
-62 59 -112 64 -233 22z m-143 -280 c0 -11 39 -52 70 -74 l24 -17 -22 -16
c-16 -11 -22 -25 -22 -55 0 -41 -14 -53 -25 -19 -3 11 -9 19 -13 18 -4 -1 -17
4 -30 11 -30 16 -50 1 -54 -42 l-4 -32 -18 39 -17 38 35 46 c20 25 41 60 48
79 11 30 28 45 28 24z m364 -97 c37 -36 28 -110 -14 -121 -39 -10 -19 -124 30
-170 36 -34 75 -43 132 -32 37 7 51 4 97 -19 123 -61 225 -199 250 -336 14
-74 14 -226 1 -261 -8 -22 -13 -24 -37 -18 -71 20 -248 -12 -248 -45 0 -16
-61 -104 -99 -143 -31 -32 -43 -37 -99 -43 -63 -6 -117 -1 -148 15 -13 7 -19
30 -24 101 -6 74 -13 105 -38 153 -43 86 -57 146 -58 260 -1 87 -2 95 -11 60
-5 -22 -7 -73 -4 -113 3 -41 3 -72 -2 -70 -4 2 -35 14 -70 27 -37 14 -61 29
-59 36 4 10 62 187 72 222 2 7 17 15 32 18 49 10 95 39 117 72 25 39 58 43 80
11 9 -12 16 -17 16 -11 0 29 -52 53 -113 53 -71 0 -104 18 -154 85 -33 43 -43
66 -20 47 6 -6 23 -10 37 -10 14 1 34 -2 45 -7 18 -7 18 -6 -2 13 -22 22 -41
87 -29 100 4 4 23 -12 42 -36 40 -47 55 -51 85 -21 17 17 20 29 15 62 l-6 42
54 28 c30 16 62 37 72 48 21 23 37 24 58 3z m-94 -11 c0 -2 -88 -53 -92 -53
-3 0 -13 12 -25 28 l-20 27 69 0 c37 0 68 -1 68 -2z m-144 -20 c41 -41 59
-138 28 -150 -22 -8 -44 6 -71 47 -25 36 -29 70 -13 101 13 24 33 24 56 2z
m-129 -66 c26 -37 39 -88 29 -113 -6 -15 -8 -15 -28 2 -29 26 -61 100 -53 124
9 29 27 24 52 -13z m871 -933 c-7 -15 -23 -33 -35 -41 l-22 -15 17 44 c9 23
20 45 24 46 5 2 8 12 8 21 0 10 3 21 8 25 13 14 14 -53 0 -80z m-8 -71 c0 -10
3 -27 6 -39 5 -18 -5 -26 -64 -57 -39 -21 -75 -37 -82 -37 -6 0 1 17 18 38 16
20 37 51 47 69 24 42 75 59 75 26z m-458 -382 c-12 -9 -50 -33 -84 -55 l-61
-38 53 59 c46 52 57 59 83 55 30 -5 30 -5 9 -21z m-661 -142 l116 -23 7 -65
c22 -243 312 -431 661 -431 108 0 101 9 70 -80 l-12 -35 -94 1 c-208 2 -588
110 -753 214 -111 70 -188 169 -202 259 -14 89 25 198 69 188 12 -3 74 -15
138 -28z m1171 -569 c21 -41 47 -103 59 -138 20 -59 20 -65 5 -80 -16 -16 -25
-9 -129 97 l-112 113 -56 5 c-51 5 -55 7 -51 28 3 20 14 24 105 37 56 9 111
15 121 14 14 -1 31 -23 58 -76z"/>
<path d="M3130 3384 c-17 -10 -20 -14 -8 -14 23 0 48 11 48 21 0 12 -9 10 -40
-7z"/>
<path d="M3487 3275 c-29 -49 -74 -81 -125 -91 -38 -7 -82 11 -83 35 0 11 -2
12 -6 3 -3 -7 1 -20 8 -28 51 -62 171 -19 220 78 28 55 19 57 -14 3z"/>
<path d="M3605 2930 c13 -57 16 -168 7 -207 -5 -24 -6 -41 -2 -38 4 3 13 28
20 55 14 57 7 138 -16 185 -12 26 -13 27 -9 5z"/>
<path d="M3110 3552 c0 -11 22 -32 32 -32 5 0 4 9 -2 20 -11 20 -30 28 -30 12z"/>
<path d="M2980 3533 c0 -12 38 -48 45 -41 3 2 -6 15 -20 28 -14 13 -25 19 -25
13z"/>
<path d="M1485 3960 c17 -4 66 -8 110 -8 44 0 94 4 110 8 18 5 -26 8 -110 8
-84 0 -128 -3 -110 -8z"/>
<path d="M1840 3900 c18 -12 127 -12 155 0 13 6 -13 9 -75 9 -65 1 -90 -2 -80
-9z"/>
<path d="M1650 3799 c91 -5 239 -5 330 0 152 7 139 8 -165 8 -304 0 -317 -1
-165 -8z"/>
<path d="M1405 3610 c-38 -4 211 -7 555 -7 344 0 591 3 550 7 -93 9 -1009 9
-1105 0z"/>
<path d="M4490 3164 c216 -26 290 -42 400 -87 97 -39 227 -125 281 -185 23
-26 37 -38 31 -27 -15 30 -100 112 -150 147 -125 86 -318 146 -492 152 -58 3
-89 3 -70 0z"/>
<path d="M4524 2845 c-20 -43 -27 -81 -35 -182 -11 -149 -29 -247 -64 -346
-13 -39 -23 -73 -21 -75 8 -7 68 165 79 223 6 33 14 65 19 72 9 11 205 136
263 166 51 27 7 19 -48 -9 -59 -30 -161 -96 -194 -127 l-23 -20 0 44 c1 91 19
220 39 264 11 25 18 45 15 45 -3 0 -16 -25 -30 -55z"/>
<path d="M5150 2708 c-28 -73 -58 -160 -66 -193 -23 -96 -45 -166 -70 -223
-13 -29 -20 -51 -15 -48 4 3 15 22 25 43 l17 39 79 3 c65 2 107 -5 260 -44
100 -25 184 -44 187 -41 2 2 -22 12 -54 22 l-58 17 70 14 c70 15 345 13 390
-2 17 -5 17 -5 4 4 -9 6 -69 16 -132 23 -94 9 -134 9 -204 -2 -146 -22 -188
-23 -245 -6 -93 27 -190 38 -238 27 -25 -5 -45 -9 -46 -8 -5 5 52 196 101 341
30 88 53 161 51 163 -2 2 -27 -56 -56 -129z"/>
<path d="M2581 2482 c-21 -10 -38 -27 -42 -43 -9 -35 11 -89 41 -107 l25 -16
-23 26 c-49 54 -37 119 25 134 56 15 97 -82 53 -126 -20 -20 -16 -27 6 -12 43
28 39 97 -8 137 -35 30 -34 30 -77 7z"/>
<path d="M3178 2249 c-32 -16 -58 -33 -58 -37 0 -11 116 43 125 58 9 15 -3 11
-67 -21z"/>
<path d="M4330 2236 c0 -11 75 -53 135 -76 53 -19 80 -22 230 -24 94 -1 179
-5 190 -9 11 -4 4 0 -15 10 -28 14 -67 17 -195 18 -170 2 -227 14 -311 66 -19
11 -34 18 -34 15z"/>
<path d="M3196 2200 c-32 -10 -64 -24 -70 -31 -8 -8 -5 -9 14 -4 14 5 40 12
59 16 19 4 41 15 50 23 8 9 13 16 11 15 -3 0 -31 -9 -64 -19z"/>
<path d="M3145 2140 c-15 -7 -9 -9 25 -9 25 0 52 4 60 9 19 13 -56 13 -85 0z"/>
<path d="M2469 1965 c-15 -8 -83 -39 -151 -70 -130 -58 -189 -74 -351 -100
-105 -16 -202 -45 -332 -100 -76 -32 -90 -34 -260 -44 -182 -10 -277 -29 -341
-65 -16 -10 -20 -14 -9 -11 136 45 189 53 428 65 106 6 208 14 227 20 30 8 26
9 -25 5 -56 -5 -58 -4 -35 9 57 32 254 89 385 111 77 13 169 34 205 48 69 26
300 136 300 143 0 7 -15 3 -41 -11z"/>
<path d="M4301 1619 c-33 -13 -81 -49 -81 -60 0 -6 14 0 32 12 17 13 55 31 82
40 43 15 46 18 21 18 -16 0 -41 -5 -54 -10z"/>
<path d="M4418 1574 c-42 -22 -33 -37 10 -16 20 11 44 22 52 25 9 3 5 6 -10 6
-14 0 -37 -7 -52 -15z"/>
<path d="M1903 1521 c-254 -87 -344 -123 -340 -134 5 -17 468 -342 527 -371
40 -20 -186 144 -404 292 -68 47 -113 84 -105 86 60 20 379 130 439 151 l75
28 140 -97 c77 -53 169 -117 205 -143 42 -30 57 -37 41 -20 -13 14 -41 38 -63
53 l-39 27 38 22 c67 38 198 125 190 125 -15 0 -103 -49 -166 -94 -36 -24 -70
-42 -76 -38 -6 4 -45 31 -87 59 -98 68 -176 113 -191 113 -7 0 -89 -27 -184
-59z"/>
<path d="M2621 1536 c4 -4 377 -176 439 -203 71 -30 12 7 -97 61 -157 79 -370
167 -342 142z"/>
<path d="M1890 1433 c-84 -42 -148 -79 -142 -81 10 -3 218 98 284 138 71 43 5
16 -142 -57z"/>
<path d="M1775 1426 c-27 -14 -42 -25 -33 -25 22 -1 88 30 88 41 0 11 2 11
-55 -16z"/>
<path d="M2537 1402 c-20 -14 -35 -27 -33 -29 6 -6 63 24 71 38 13 19 0 17
-38 -9z"/>
<path d="M4105 1411 c-22 -10 -49 -28 -60 -41 -18 -20 -14 -19 40 8 33 17 71
35 85 41 l25 10 -25 0 c-14 0 -43 -8 -65 -18z"/>
<path d="M1895 1365 c-44 -25 -74 -45 -67 -45 15 0 119 52 147 74 38 29 0 15
-80 -29z"/>
<path d="M1990 1354 c-58 -30 -112 -62 -120 -70 -13 -14 203 90 240 115 13 10
13 11 0 11 -8 0 -62 -25 -120 -56z"/>
<path d="M2570 1270 c-58 -55 -99 -100 -93 -100 7 0 59 45 115 100 57 54 99
99 93 99 -5 0 -57 -45 -115 -99z"/>
<path d="M2030 1279 c-51 -33 -90 -63 -87 -66 6 -6 172 101 182 117 11 17 -1
11 -95 -51z"/>
<path d="M2140 1269 c-92 -63 -131 -94 -107 -86 21 8 130 80 170 114 50 41 13
25 -63 -28z"/>
<path d="M4074 1306 c-18 -8 -35 -19 -39 -26 -8 -12 64 15 80 31 13 13 -4 11
-41 -5z"/>
<path d="M3033 1238 c-37 -34 -111 -104 -164 -155 -53 -51 -99 -93 -102 -93
-3 0 4 29 16 65 17 51 18 68 9 77 -21 21 -44 -3 -72 -73 -15 -35 -31 -64 -36
-64 -5 0 -67 23 -139 52 -71 28 -149 57 -172 63 -24 7 -43 16 -43 19 0 3 39
29 86 56 47 28 91 57 97 65 7 8 -2 6 -23 -6 -19 -12 -112 -65 -207 -119 -184
-106 -227 -141 -68 -56 l97 52 126 -50 c70 -27 154 -59 188 -71 l61 -22 -29
-83 c-24 -70 -26 -88 -17 -111 11 -28 12 -27 62 78 28 60 58 110 67 113 17 6
349 324 338 324 -4 1 -38 -27 -75 -61z"/>
<path d="M3694 1286 c-35 -11 -99 -46 -84 -46 3 0 30 9 60 21 32 12 82 21 121
22 37 1 65 5 62 10 -7 11 -114 7 -159 -7z"/>
<path d="M2699 1213 c-85 -88 -104 -115 -53 -75 45 36 140 142 127 142 -5 0
-38 -30 -74 -67z"/>
<path d="M2601 1216 c-54 -58 -66 -79 -28 -49 34 27 101 103 90 103 -6 0 -33
-24 -62 -54z"/>
</g>
</svg>
