<?xml version="1.0" standalone="no"?>
<!DOCTYPE svg PUBLIC "-//W3C//DTD SVG 20010904//EN"
 "http://www.w3.org/TR/2001/REC-SVG-20010904/DTD/svg10.dtd">
<svg version="1.0" xmlns="http://www.w3.org/2000/svg"
  viewBox="0 0 600.000000 600.000000"
 preserveAspectRatio="xMidYMid meet">

<g transform="translate(0.000000,600.000000) scale(0.100000,-0.100000)"
fill="currentColor" stroke="currentColor">
<path d="M3905 4613 c-208 -28 -355 -159 -355 -318 0 -72 23 -126 74 -174 45
-43 46 -68 10 -241 -31 -150 -30 -258 3 -310 l20 -32 -33 -56 c-19 -31 -34
-59 -34 -63 0 -4 -10 -9 -23 -13 -44 -11 -106 -66 -157 -138 -40 -58 -61 -77
-98 -94 -26 -12 -67 -38 -92 -59 -59 -49 -71 -53 -170 -53 -68 1 -94 -3 -128
-21 -23 -12 -42 -23 -42 -25 0 -1 26 6 58 17 42 14 73 18 121 14 82 -6 111 3
170 52 27 22 68 52 92 65 24 14 71 58 105 98 33 40 80 87 105 105 58 42 78 62
111 111 l27 41 62 -32 c53 -27 72 -32 133 -31 48 0 83 6 106 18 51 26 108 85
121 124 l11 34 33 -32 c30 -29 38 -32 72 -26 51 9 77 9 150 1 71 -9 141 5 185
37 28 20 31 20 74 3 24 -9 71 -39 103 -66 93 -77 138 -161 166 -309 l15 -75
-5 73 c-9 126 -63 240 -143 299 -20 15 -50 40 -66 55 -16 15 -45 33 -63 39
-19 6 -32 14 -31 17 25 46 60 131 69 168 32 125 -22 273 -141 389 -72 69 -96
108 -140 221 -27 70 -40 88 -92 128 -60 45 -145 66 -256 65 -54 -1 -110 -4
-127 -6z m38 -194 c12 -101 78 -201 154 -235 42 -18 103 -17 127 1 11 8 34 15
52 15 46 0 74 -38 74 -99 -1 -52 -12 -72 -55 -92 -70 -33 -103 -227 -57 -331
11 -25 25 -49 32 -53 17 -10 -69 -47 -95 -41 -11 3 -30 24 -42 47 -22 39 -22
43 -5 55 9 7 -10 3 -43 -8 -105 -35 -216 -9 -294 72 -67 69 -89 152 -106 412
-7 96 -7 97 24 142 39 56 100 109 165 141 27 14 53 25 57 25 3 0 9 -23 12 -51z"/>
<path d="M3721 4216 c-10 -12 -6 -13 26 -9 28 4 43 1 52 -11 7 -9 18 -16 24
-16 6 0 0 11 -13 25 -26 28 -71 33 -89 11z"/>
<path d="M3975 4180 c-17 -7 -15 -9 11 -9 17 -1 47 -3 65 -6 l34 -5 -30 14
c-34 17 -51 18 -80 6z"/>
<path d="M3896 4151 c-13 -20 -46 -179 -46 -218 0 -44 18 -64 57 -62 16 0 16
1 -2 9 -41 16 -44 30 -29 119 8 46 18 101 23 123 9 37 8 47 -3 29z"/>
<path d="M3980 4081 c0 -17 23 -61 31 -61 10 0 -10 58 -22 66 -5 3 -9 1 -9 -5z"/>
<path d="M3770 4075 c0 -13 31 -78 35 -74 7 7 -17 79 -27 79 -4 0 -8 -2 -8 -5z"/>
<path d="M4041 3866 c-16 -28 -47 -46 -98 -56 l-38 -8 48 -1 c41 -1 53 3 78
28 16 16 29 37 29 45 0 22 -4 20 -19 -8z"/>
<path d="M4094 3531 c-35 -22 -66 -60 -58 -73 10 -16 51 -8 73 16 14 15 21 33
19 50 l-3 26 -31 -19z m12 -36 c-14 -22 -46 -35 -46 -20 0 9 54 54 59 49 2 -2
-4 -15 -13 -29z"/>
<path d="M1955 3429 c-88 -16 -396 -70 -685 -119 -289 -49 -512 -89 -496 -89
90 -2 1354 214 1375 235 8 8 -35 2 -194 -27z"/>
<path d="M2196 3325 c5 -66 9 -142 9 -170 l0 -50 -55 -27 -55 -27 70 -32 c39
-17 118 -44 177 -58 l106 -26 7 -145 c3 -80 10 -201 15 -270 7 -103 8 -84 4
105 -2 127 -7 253 -10 280 l-6 50 33 2 c18 1 37 -4 43 -11 6 -8 31 -17 56 -20
25 -2 61 -7 80 -11 l35 -6 -40 17 c-22 9 -59 19 -82 21 -82 9 -39 41 66 50 37
3 98 2 135 -2 l67 -7 -7 -36 c-4 -20 -10 -61 -13 -91 l-6 -55 -55 -22 c-55
-23 -124 -30 -147 -16 -6 4 -16 41 -22 82 -8 61 -9 39 -5 -120 2 -107 7 -220
10 -251 6 -54 5 -58 -21 -75 -15 -10 -45 -18 -66 -19 -43 0 -51 -9 -17 -18 12
-4 41 2 65 13 l43 19 122 -45 c194 -70 184 -62 103 -88 -96 -30 -192 -83 -237
-130 -21 -21 -38 -42 -38 -47 0 -5 19 11 43 34 77 77 236 140 419 166 40 6
207 18 370 27 l297 16 61 -40 c107 -72 235 -109 397 -114 51 -2 93 -5 93 -8 0
-3 -45 -50 -101 -105 -55 -55 -130 -135 -167 -179 l-67 -79 -100 6 c-101 5
-91 -5 18 -18 52 -6 70 -16 49 -28 -4 -3 -46 4 -94 15 l-87 20 14 36 c9 19 13
37 10 40 -9 9 -470 132 -485 129 -8 -1 94 -33 226 -71 l242 -69 -28 -67 c-34
-81 -58 -175 -66 -258 l-7 -62 -56 6 c-194 21 -457 83 -681 159 -198 68 -272
114 -316 197 -24 43 -24 141 -1 187 10 19 15 36 12 39 -2 2 -10 -8 -17 -24 -6
-16 -13 -30 -13 -32 -1 -1 -22 5 -46 14 l-44 17 -144 -59 c-80 -33 -146 -64
-148 -69 -3 -11 105 -75 127 -75 6 0 63 25 126 55 104 49 115 52 112 33 -2
-16 -41 -41 -163 -104 -88 -46 -199 -100 -247 -121 -48 -20 -86 -39 -84 -41 9
-8 199 74 343 148 l151 78 27 -54 c45 -91 117 -137 340 -214 209 -72 456 -125
666 -144 l66 -6 6 58 c4 33 11 70 16 84 9 25 11 25 68 15 32 -5 60 -11 61 -12
2 -2 -14 -30 -36 -62 -40 -59 -82 -136 -65 -118 6 6 34 46 63 90 136 205 279
376 477 572 97 96 185 173 239 209 89 59 253 148 261 141 2 -3 -5 -28 -17 -56
-21 -53 -26 -101 -12 -101 5 0 19 11 31 24 13 14 29 22 37 19 8 -3 21 1 30 8
9 7 24 13 35 14 10 1 27 9 37 18 10 9 26 17 35 17 8 0 28 18 44 40 15 22 34
40 42 40 7 0 31 -17 52 -39 69 -68 57 -111 -86 -321 -172 -251 -402 -540 -598
-750 -33 -36 -90 -96 -126 -135 -36 -38 0 -5 80 75 255 254 479 529 693 850
81 121 102 172 91 226 -6 32 -51 88 -88 109 -17 9 -17 13 -3 54 30 82 14 128
-55 155 -72 29 -159 15 -241 -40 -34 -22 -38 -22 -38 -6 0 23 25 59 53 74 12
6 49 17 82 24 l60 12 -47 1 c-54 1 -94 -12 -125 -41 l-23 -21 0 84 c0 62 6 95
20 128 23 50 23 51 10 51 -15 0 -57 48 -81 94 -11 21 -27 68 -34 105 l-13 66
-1 -47 c-1 -54 23 -125 62 -182 15 -21 27 -35 27 -31 0 4 6 2 14 -4 12 -10 11
-20 -6 -64 -16 -41 -19 -66 -14 -122 3 -38 6 -74 5 -80 -1 -40 -9 -97 -18
-133 -13 -45 -8 -76 16 -103 12 -15 8 -20 -44 -49 -77 -44 -218 -139 -271
-184 -41 -33 -49 -36 -110 -36 -166 0 -337 44 -448 115 l-58 37 -108 -1 c-81
-2 -109 1 -112 11 -41 140 -73 232 -92 270 -13 26 -24 52 -24 57 0 18 66 49
129 60 68 11 131 43 170 85 34 36 20 32 -34 -9 -41 -31 -126 -65 -162 -65 -8
0 -43 -14 -78 -31 -85 -41 -132 -46 -205 -24 -56 17 -62 17 -121 1 -81 -23
-137 -15 -180 25 l-31 29 3 122 4 121 -60 14 c-66 16 -195 12 -237 -7 -21 -10
-44 -4 -166 44 -77 31 -145 56 -151 56 -10 0 -12 17 -32 220 -6 63 -13 117
-16 120 -3 3 -1 -49 3 -115z m146 -279 c62 -25 125 -48 140 -51 32 -8 28 -25
-7 -25 -13 0 -25 -5 -27 -11 -4 -12 -172 33 -263 70 -71 28 -51 26 52 -8 123
-39 146 -45 137 -30 -5 8 -2 11 7 7 41 -15 63 -20 54 -10 -11 10 -189 82 -204
82 -6 0 -13 5 -16 10 -10 17 9 12 127 -34z m-101 4 c24 -11 40 -20 35 -20 -16
0 -91 23 -100 32 -18 15 21 8 65 -12z m599 -286 c0 -35 47 -80 100 -94 39 -10
61 -9 113 6 12 4 17 0 17 -13 1 -16 14 -57 34 -105 6 -13 3 -15 -13 -11 -14 3
-23 0 -27 -12 -11 -28 23 -119 61 -161 l35 -39 -35 59 c-34 57 -54 121 -42
133 3 3 25 -10 49 -28 42 -34 43 -30 6 23 -18 27 -39 79 -52 131 -5 20 -3 27
8 27 8 0 16 -7 20 -15 3 -8 10 -15 16 -15 7 0 7 6 0 21 -7 11 -10 22 -8 24 2
1 33 -7 71 -18 46 -15 67 -27 67 -38 0 -26 21 -79 30 -74 4 3 18 -20 30 -50
13 -31 24 -54 27 -52 2 3 -13 46 -33 97 -30 75 -34 94 -23 101 44 28 66 -3
130 -184 55 -153 57 -147 -48 -147 -106 0 -341 -17 -392 -29 -31 -7 -59 1
-199 53 l-162 61 0 81 c0 44 -3 122 -7 173 l-6 92 29 -11 c36 -14 97 -5 144
20 47 26 60 25 60 -6z m2080 -92 c19 -9 41 -29 49 -43 13 -24 13 -32 -7 -80
-25 -59 -82 -152 -89 -145 -2 2 3 18 11 35 9 16 16 38 16 48 -1 10 -11 -1 -25
-27 -26 -50 -64 -94 -73 -86 -3 3 2 14 10 23 20 23 58 98 58 115 0 7 -12 -7
-26 -32 -35 -62 -98 -143 -102 -132 -1 5 10 32 26 58 55 94 53 116 -2 27 -79
-127 -105 -134 -59 -17 l29 76 -19 39 c-27 56 -53 35 -69 -56 -4 -19 -5 -19
-17 4 -18 32 -6 102 22 134 59 67 193 97 267 59z m-239 -192 l-10 -25 0 25
c-1 14 3 36 7 50 l7 25 3 -25 c2 -14 -2 -37 -7 -50z m26 -2 c-3 -8 -6 -5 -6 6
-1 11 2 17 5 13 3 -3 4 -12 1 -19z m-2233 -466 c3 -5 -21 -21 -52 -36 -80 -39
-162 -89 -162 -99 0 -5 25 6 56 23 37 22 59 29 66 22 6 -6 -9 -18 -47 -36 -32
-14 -60 -26 -64 -26 -13 0 -111 44 -111 50 0 4 51 26 113 49 61 23 119 46 127
51 18 12 67 13 74 2z m46 -25 c0 -18 -110 -71 -122 -59 -6 6 11 21 44 41 58
33 78 38 78 18z"/>
<path d="M4069 3363 c-25 -80 -39 -332 -21 -393 9 -28 10 -16 5 60 -5 100 9
251 32 340 21 78 10 74 -16 -7z"/>
<path d="M3736 3348 c-15 -57 -6 -180 19 -255 15 -43 23 -84 19 -96 -3 -11
-25 -40 -48 -65 -25 -29 -32 -39 -16 -29 13 9 27 17 30 17 3 0 5 -48 4 -108 0
-90 -3 -112 -21 -142 -34 -56 -53 -137 -52 -219 l2 -76 8 79 c9 89 29 163 59
221 16 31 20 59 20 135 0 96 14 180 30 190 5 3 -3 44 -17 90 -20 65 -26 108
-27 183 -1 53 -2 97 -2 97 -1 0 -4 -10 -8 -22z"/>
<path d="M5339 3343 c-75 -82 -143 -198 -170 -290 -6 -23 -15 -40 -19 -38 -12
8 -59 -89 -95 -197 -19 -56 -34 -98 -35 -93 0 15 -40 78 -46 73 -2 -3 4 -20
13 -39 12 -23 18 -58 18 -109 0 -41 6 -84 12 -95 11 -18 12 -15 13 21 0 102
57 320 100 384 9 13 11 13 19 0 9 -13 10 -13 14 0 3 8 12 42 22 75 24 84 87
201 139 260 l44 50 7 -29 c9 -32 0 -74 -60 -306 -39 -148 -85 -301 -128 -430
-40 -117 -68 -212 -65 -216 2 -2 19 38 37 89 18 51 42 116 53 145 29 74 88
116 88 63 0 -22 -61 -212 -114 -356 -44 -119 -32 -116 17 5 61 151 119 339
113 365 -7 27 -43 34 -64 13 -18 -18 -16 -10 28 135 62 207 113 418 113 470 1
29 -5 53 -14 62 -13 14 -18 12 -40 -12z"/>
<path d="M4500 3283 c0 -6 9 -21 20 -34 15 -18 19 -20 20 -8 0 9 -9 24 -20 34
-11 10 -20 13 -20 8z"/>
<path d="M1516 3175 c-33 -9 -65 -20 -71 -25 -7 -6 -24 -6 -43 0 -18 5 -32 5
-32 0 0 -9 -60 -20 -107 -20 -31 1 -33 -2 -32 -32 1 -18 5 -44 9 -58 6 -20 8
-14 9 28 1 28 3 52 6 52 3 0 31 -11 63 -24 87 -36 212 -76 258 -83 30 -4 45
-1 57 12 16 15 17 8 18 -112 0 -70 4 -206 8 -301 7 -168 8 -175 32 -193 29
-23 66 -20 135 10 66 30 50 35 -29 9 -52 -17 -71 -19 -90 -11 -22 10 -24 18
-30 119 -4 59 -7 166 -8 238 0 72 -4 166 -8 209 l-7 78 31 -8 c54 -14 95 -8
118 17 l22 23 -25 -17 c-36 -24 -67 -20 -182 20 -111 40 -114 41 -105 50 3 3
35 -6 71 -20 68 -27 91 -32 81 -17 -3 5 -29 17 -58 27 -28 10 -45 20 -37 21 9
2 46 -10 84 -27 68 -31 105 -35 47 -5 -17 8 -31 17 -31 19 0 3 102 -27 165
-49 20 -7 20 -7 0 10 -24 19 -164 64 -220 70 -22 2 -67 -2 -99 -10z m54 -72
c3 -3 -4 -3 -15 0 -86 24 -104 31 -99 38 4 8 102 -25 114 -38z m-79 2 c60 -19
116 -35 125 -35 9 0 14 -7 12 -17 -5 -30 -83 -29 -148 2 -30 14 -44 23 -31 19
40 -10 15 13 -34 32 -25 9 -45 21 -45 25 0 13 3 12 121 -26z m-116 -1 c19 -16
19 -16 -5 -9 -14 4 -32 11 -40 16 -12 7 -11 8 5 8 11 0 29 -7 40 -15z"/>
<path d="M706 3085 c11 -183 111 -892 134 -948 7 -16 8 -9 4 23 -3 25 -7 51
-10 58 -2 6 0 12 5 12 12 0 138 -48 169 -64 24 -13 22 -14 -47 -31 -71 -17
-100 -33 -38 -20 237 49 958 262 1205 357 31 12 38 10 105 -24 40 -20 89 -42
110 -48 20 -6 35 -15 32 -19 -5 -10 281 -124 297 -119 6 2 -42 26 -107 53 -65
27 -112 51 -105 53 7 3 -27 19 -76 37 -102 36 -156 61 -234 105 -38 22 -47 25
-31 10 19 -16 22 -23 12 -30 -30 -18 -592 -197 -705 -224 l-29 -7 30 25 c28
23 30 30 25 71 l-5 46 49 -22 c27 -12 57 -26 66 -30 33 -17 78 -10 103 16 14
13 25 30 25 37 -1 7 -9 3 -19 -9 -22 -26 -65 -45 -85 -37 -10 4 -16 34 -20
112 -3 59 -11 195 -17 302 -6 107 -14 197 -16 200 -7 7 5 -334 17 -480 5 -63
8 -115 6 -117 -2 -2 -27 8 -57 22 l-54 24 -27 212 c-35 278 -48 350 -62 354
-6 2 -79 17 -163 35 -135 28 -156 30 -190 19 -32 -11 -35 -14 -18 -19 44 -14
86 -33 82 -36 -2 -3 -33 5 -68 16 -35 11 -67 20 -71 20 -5 0 -7 -15 -7 -32 1
-25 3 -27 6 -10 3 13 10 22 16 19 19 -7 196 -55 257 -70 59 -14 125 -15 151
-3 14 6 17 -9 28 -111 16 -147 61 -474 67 -484 8 -14 -49 -49 -81 -49 l-33 0
-7 78 c-12 142 -45 447 -54 492 -18 93 -11 -21 19 -290 16 -145 28 -266 26
-267 -1 -2 -43 11 -94 28 -80 27 -91 33 -96 57 -3 15 -19 133 -36 262 -32 245
-37 271 -48 268 -4 -1 -25 6 -47 16 -46 20 -218 66 -246 66 -10 0 -19 1 -20 3
0 1 -7 43 -14 92 l-14 90 5 -90z m476 -81 c59 -13 120 -24 137 -24 16 0 33 -5
37 -12 12 -19 -27 -38 -75 -37 -43 1 -111 16 -83 18 7 1 11 5 7 10 -3 6 6 6
25 1 16 -5 30 -5 30 0 0 13 -99 43 -122 36 -18 -4 -103 11 -118 22 -10 7 26
22 40 16 8 -3 63 -16 122 -30z m-306 -60 c159 -43 158 -43 151 -51 -4 -3 -28
-10 -54 -14 -38 -6 -67 -2 -140 19 -92 27 -132 52 -69 44 24 -3 28 -1 16 7 -8
6 -23 11 -32 11 -10 0 -18 5 -18 10 0 14 2 14 146 -26z m-76 -53 c30 -11 72
-22 92 -26 43 -8 35 32 73 -377 31 -332 31 -302 -2 -285 -16 8 -52 22 -80 31
-29 10 -53 18 -53 19 0 1 -18 126 -39 277 -49 344 -54 380 -49 380 2 0 28 -9
58 -19z m259 -131 c13 -137 56 -434 71 -490 9 -33 9 -32 6 13 -3 42 -1 48 13
43 58 -19 191 -59 215 -65 24 -5 9 -12 -95 -40 -68 -19 -131 -36 -139 -39 -12
-4 -11 -1 3 15 27 31 20 34 -25 8 -24 -14 -57 -25 -74 -25 l-31 0 -7 123 c-7
120 -38 441 -52 524 l-6 42 33 -5 c22 -4 41 0 54 9 11 9 21 15 21 14 1 -1 7
-58 13 -127z"/>
<path d="M810 2930 c0 -9 25 -20 46 -20 9 0 13 4 10 9 -7 11 -56 21 -56 11z"/>
<path d="M4944 3125 c46 -60 66 -129 67 -234 1 -59 4 -78 9 -61 13 41 11 144
-4 194 -16 54 -60 122 -88 137 -12 6 -6 -6 16 -36z"/>
<path d="M1847 2885 c3 -115 9 -253 13 -305 6 -62 7 -9 3 150 -3 135 -9 272
-14 305 -4 35 -5 -27 -2 -150z"/>
<path d="M2082 2935 c0 -60 4 -171 7 -245 7 -131 8 -128 8 80 0 118 -3 229 -7
245 -5 19 -8 -10 -8 -80z"/>
<path d="M1704 2755 c0 -148 2 -211 3 -138 2 72 2 194 0 270 -1 76 -3 17 -3
-132z"/>
<path d="M4047 2830 c-3 -25 -9 -72 -12 -105 -3 -33 -13 -87 -21 -120 -18 -68
-14 -189 6 -208 10 -9 11 -8 7 8 -15 55 -16 106 -2 165 17 74 38 263 32 288
-2 9 -6 -3 -10 -28z"/>
<path d="M2050 2393 c-69 -25 -309 -108 -535 -184 -225 -76 -405 -138 -398
-139 20 0 323 94 553 172 l215 73 38 -24 c20 -14 34 -28 30 -31 -5 -4 -45 -22
-91 -40 l-83 -33 -39 22 c-48 27 -65 27 -22 0 17 -12 32 -24 32 -28 0 -8 -141
-61 -164 -61 -9 0 -35 9 -57 21 -23 11 -43 18 -46 15 -3 -2 13 -14 36 -26 23
-11 41 -22 41 -24 0 -2 -34 -15 -75 -30 l-75 -27 -39 21 c-54 27 -65 25 -18
-4 l39 -24 -37 -12 c-50 -16 -37 -24 15 -9 39 12 44 11 105 -22 36 -19 65 -37
65 -40 0 -3 -17 -14 -38 -23 l-39 -17 -169 65 c-93 36 -177 70 -186 76 -10 6
-18 6 -18 2 0 -20 692 -293 707 -278 2 1 -65 30 -148 62 -83 32 -151 63 -151
68 0 5 17 16 37 24 35 14 39 13 125 -27 86 -40 146 -57 85 -24 l-29 16 62 31
c53 26 66 29 90 19 59 -23 66 -24 35 -4 -18 11 -33 23 -33 25 0 2 26 19 57 36
51 29 61 31 87 22 36 -14 46 -8 15 8 -21 12 -17 15 62 56 l84 44 50 -26 c43
-22 47 -23 26 -4 -13 11 -31 25 -40 31 -9 6 -11 12 -6 15 6 2 41 22 80 43 l70
39 78 -40 c92 -46 95 -35 5 16 l-61 34 34 21 c40 25 32 28 -13 5 -28 -15 -34
-15 -69 2 -42 19 -48 28 -23 38 9 4 15 9 12 12 -3 2 -17 0 -30 -7 -20 -9 -32
-8 -57 5 -17 9 -31 19 -31 21 0 2 12 12 28 20 15 9 18 13 7 10 -50 -16 -74
-16 -105 0 -17 9 -30 18 -28 20 2 2 26 13 53 24 92 37 21 19 -105 -26z m67
-24 c19 -12 32 -23 30 -25 -2 -2 -39 -19 -82 -38 l-78 -34 -43 21 c-24 11 -41
23 -38 26 4 5 153 65 173 70 2 1 19 -9 38 -20z m102 -58 c23 -15 22 -15 -54
-54 l-78 -39 -38 18 c-22 9 -39 20 -39 23 1 10 165 79 175 73 6 -3 21 -12 34
-21z m82 -42 c23 -11 39 -22 37 -24 -1 -1 -39 -21 -83 -43 l-81 -40 -37 22
-37 23 77 41 c43 23 79 41 81 42 1 0 21 -9 43 -21z m-275 -41 l37 -22 -79 -37
c-44 -21 -86 -38 -94 -38 -21 -1 -84 38 -75 47 7 7 156 71 167 72 4 0 23 -10
44 -22z m98 -57 l28 -19 -43 -25 c-24 -14 -61 -33 -82 -43 -36 -17 -39 -17
-72 1 -19 10 -35 21 -35 24 0 9 142 80 160 81 8 0 28 -9 44 -19z m-270 -52 c5
-4 -21 -23 -58 -41 l-66 -32 -56 27 c-31 16 -55 30 -52 32 2 2 37 17 78 33
l75 29 35 -20 c19 -11 39 -24 44 -28z m79 -42 l39 -23 -62 -33 c-65 -35 -87
-35 -129 -2 l-25 19 60 30 c32 17 64 31 69 31 6 1 27 -10 48 -22z m-283 -12
c28 -14 50 -28 50 -31 0 -3 -29 -19 -64 -35 l-64 -30 -66 33 c-36 18 -66 35
-66 38 0 7 118 48 143 49 10 1 40 -10 67 -24z m132 -66 c45 -23 44 -25 -28
-63 l-51 -28 -54 28 -54 27 60 29 c72 34 75 34 127 7z"/>
<path d="M3996 2334 c-9 -24 -7 -87 4 -104 7 -11 10 5 10 53 0 68 -3 80 -14
51z"/>
<path d="M2281 2029 c-394 -198 -502 -255 -426 -229 40 15 818 407 841 425 11
8 16 15 12 15 -4 0 -196 -95 -427 -211z"/>
<path d="M850 2080 c0 -32 34 -70 82 -93 224 -105 834 -302 1028 -332 77 -12
35 9 -160 80 -222 81 -596 223 -774 294 -71 29 -130 50 -133 48 -11 -12 544
-231 890 -352 59 -21 106 -39 104 -41 -4 -5 -207 53 -357 101 -168 55 -601
214 -627 230 -33 22 -49 55 -32 66 11 7 10 9 -3 9 -10 0 -18 -5 -18 -10z"/>
<path d="M3730 1408 c41 -5 79 -13 83 -17 4 -4 -47 -60 -113 -124 -71 -69
-120 -123 -120 -135 0 -27 155 -174 286 -272 119 -88 147 -101 171 -77 14 13
14 20 -1 63 -23 69 -66 140 -125 207 -55 63 -57 67 -39 100 17 32 119 157 128
157 4 0 35 -29 69 -65 69 -74 82 -75 21 -1 -98 118 -223 177 -370 174 l-65 -1
75 -9z"/>
</g>
</svg>
